<svg width="432" height="151" viewBox="0 0 432 151" fill="none" xmlns="http://www.w3.org/2000/svg">
<g filter="url(#filter0_i_1140_18433)">
<rect x="0.666992" y="0.0605469" width="431.333" height="150" fill="url(#paint0_linear_1140_18433)"/>
<path d="M212.47 103.444V72.623H218.986V85.3397H232.215V72.623H238.716V103.444H232.215V90.7122H218.986V103.444H212.47Z" fill="black"/>
<path d="M244.028 103.444V98.7486L254.999 88.5903C255.932 87.6873 256.715 86.8747 257.347 86.1523C257.989 85.43 258.475 84.7226 258.806 84.0304C259.138 83.3281 259.303 82.5706 259.303 81.7579C259.303 80.855 259.097 80.0774 258.686 79.4253C258.275 78.7631 257.713 78.2565 257.001 77.9053C256.288 77.5441 255.481 77.3636 254.578 77.3636C253.635 77.3636 252.812 77.5542 252.11 77.9354C251.407 78.3167 250.865 78.8635 250.484 79.5758C250.103 80.2881 249.912 81.1359 249.912 82.1191H243.727C243.727 80.1025 244.184 78.3518 245.097 76.8669C246.01 75.3821 247.289 74.2333 248.934 73.4206C250.58 72.608 252.476 72.2017 254.623 72.2017C256.83 72.2017 258.751 72.5929 260.387 73.3755C262.032 74.148 263.311 75.2215 264.224 76.596C265.137 77.9705 265.594 79.5457 265.594 81.3215C265.594 82.4853 265.363 83.6341 264.901 84.7678C264.45 85.9015 263.642 87.1606 262.478 88.5452C261.315 89.9197 259.674 91.5701 257.557 93.4964L253.058 97.9058V98.1165H266V103.444H244.028Z" fill="black"/>
<path d="M222.505 55.9233L190.269 88.1876L178.29 76.2085L182.273 72.2249L190.269 80.2204L218.521 51.9679L222.505 55.9233ZM194.252 97.7934C181.793 97.7934 171.65 87.6508 171.65 75.1914C171.65 62.7321 181.793 52.5895 194.252 52.5895C198.688 52.5895 202.841 53.8891 206.345 56.121L210.441 52.0244C205.836 48.8319 200.27 46.939 194.252 46.939C178.657 46.939 166 59.5961 166 75.1914C166 90.7868 178.657 103.444 194.252 103.444C199.14 103.444 203.745 102.201 207.757 99.9971L203.519 95.7592C200.694 97.0589 197.558 97.7934 194.252 97.7934Z" fill="black"/>
</g>
<defs>
<filter id="filter0_i_1140_18433" x="0.666992" y="0.0605469" width="431.333" height="154" filterUnits="userSpaceOnUse" color-interpolation-filters="sRGB">
<feFlood flood-opacity="0" result="BackgroundImageFix"/>
<feBlend mode="normal" in="SourceGraphic" in2="BackgroundImageFix" result="shape"/>
<feColorMatrix in="SourceAlpha" type="matrix" values="0 0 0 0 0 0 0 0 0 0 0 0 0 0 0 0 0 0 127 0" result="hardAlpha"/>
<feMorphology radius="16" operator="erode" in="SourceAlpha" result="effect1_innerShadow_1140_18433"/>
<feOffset dy="4"/>
<feGaussianBlur stdDeviation="8"/>
<feComposite in2="hardAlpha" operator="arithmetic" k2="-1" k3="1"/>
<feColorMatrix type="matrix" values="0 0 0 0 0 0 0 0 0 0 0 0 0 0 0 0 0 0 0.08 0"/>
<feBlend mode="normal" in2="shape" result="effect1_innerShadow_1140_18433"/>
</filter>
<linearGradient id="paint0_linear_1140_18433" x1="128.664" y1="-21.5003" x2="215.758" y2="265.71" gradientUnits="userSpaceOnUse">
<stop stop-color="#FBFDFF"/>
<stop offset="1" stop-color="#DAECFC"/>
</linearGradient>
</defs>
</svg>
