<svg width="316" height="133" viewBox="0 0 316 133" fill="none" xmlns="http://www.w3.org/2000/svg">
<g filter="url(#filter0_i_1140_18524)">
<rect y="0.939453" width="316" height="132" fill="#001439"/>
</g>
<path d="M178.167 47.4426V74.5429H175.141L179.454 78.8564C181.306 78.2918 182.684 76.5754 182.684 74.5429V47.4426C182.684 44.9584 180.651 42.9259 178.167 42.9259H143.524L148.041 47.4426H178.167ZM146.55 65.5095H151.067V70.0262H146.55V65.5095ZM173.65 58.7344H159.332L163.849 63.2511H173.65V58.7344ZM173.65 51.9593H155.584V54.9855L157.074 56.4761H173.65V51.9593ZM136.184 42L133 45.1843L137.539 49.7236L137.517 88.093L146.55 79.0596H166.875L179.816 92L183 88.8157L136.184 42ZM144.676 74.5429L142.033 77.1852V54.2177L146.55 58.7344V63.2511H151.067L162.359 74.5429H144.676Z" fill="#E3F2FD"/>
<defs>
<filter id="filter0_i_1140_18524" x="0" y="0.939453" width="316" height="136" filterUnits="userSpaceOnUse" color-interpolation-filters="sRGB">
<feFlood flood-opacity="0" result="BackgroundImageFix"/>
<feBlend mode="normal" in="SourceGraphic" in2="BackgroundImageFix" result="shape"/>
<feColorMatrix in="SourceAlpha" type="matrix" values="0 0 0 0 0 0 0 0 0 0 0 0 0 0 0 0 0 0 127 0" result="hardAlpha"/>
<feMorphology radius="16" operator="erode" in="SourceAlpha" result="effect1_innerShadow_1140_18524"/>
<feOffset dy="4"/>
<feGaussianBlur stdDeviation="8"/>
<feComposite in2="hardAlpha" operator="arithmetic" k2="-1" k3="1"/>
<feColorMatrix type="matrix" values="0 0 0 0 0 0 0 0 0 0 0 0 0 0 0 0 0 0 0.08 0"/>
<feBlend mode="normal" in2="shape" result="effect1_innerShadow_1140_18524"/>
</filter>
</defs>
</svg>

