<svg width="316" height="133" viewBox="0 0 316 133" fill="none" xmlns="http://www.w3.org/2000/svg">
<g filter="url(#filter0_i_1140_18504)">
<rect y="0.939453" width="316" height="132" fill="#001439"/>
</g>
<path d="M163.814 36.9395H139.963C136.683 36.9395 134.03 39.5945 134.03 42.8395L134 90.0394C134 93.2844 136.653 95.9395 139.933 95.9395H175.739C179.019 95.9395 181.702 93.2844 181.702 90.0394V54.6395L163.814 36.9395ZM139.963 90.0394V42.8395H160.832V57.5895H175.739V90.0394H139.963Z" fill="#E3F2FD"/>
<path d="M145.8 75.8795V66.4395H151.995V68.085H147.744V70.3344H151.676V71.9799H147.744V74.2339H152.013V75.8795H145.8Z" fill="#E3F2FD"/>
<path d="M153.298 68.085V66.4395H160.848V68.085H158.034V75.8795H156.112V68.085H153.298Z" fill="#E3F2FD"/>
<path d="M161.849 68.085V66.4395H169.4V68.085H166.585V75.8795H164.664V68.085H161.849Z" fill="#E3F2FD"/>
<defs>
<filter id="filter0_i_1140_18504" x="0" y="0.939453" width="316" height="136" filterUnits="userSpaceOnUse" color-interpolation-filters="sRGB">
<feFlood flood-opacity="0" result="BackgroundImageFix"/>
<feBlend mode="normal" in="SourceGraphic" in2="BackgroundImageFix" result="shape"/>
<feColorMatrix in="SourceAlpha" type="matrix" values="0 0 0 0 0 0 0 0 0 0 0 0 0 0 0 0 0 0 127 0" result="hardAlpha"/>
<feMorphology radius="16" operator="erode" in="SourceAlpha" result="effect1_innerShadow_1140_18504"/>
<feOffset dy="4"/>
<feGaussianBlur stdDeviation="8"/>
<feComposite in2="hardAlpha" operator="arithmetic" k2="-1" k3="1"/>
<feColorMatrix type="matrix" values="0 0 0 0 0 0 0 0 0 0 0 0 0 0 0 0 0 0 0.08 0"/>
<feBlend mode="normal" in2="shape" result="effect1_innerShadow_1140_18504"/>
</filter>
</defs>
</svg>
