<svg width="317" height="133" viewBox="0 0 317 133" fill="none" xmlns="http://www.w3.org/2000/svg">
<g filter="url(#filter0_i_1140_18534)">
<rect x="0.5" y="0.939453" width="316" height="132" fill="#001439"/>
<path d="M158 42C144.2 42 133 53.2 133 67C133 80.8 144.2 92 158 92C171.8 92 183 80.8 183 67C183 53.2 171.8 42 158 42ZM138 67C138 65.475 138.2 63.975 138.525 62.55L150.475 74.5V77C150.475 79.75 152.725 82 155.475 82V86.825C145.65 85.575 138 77.175 138 67ZM172.725 80.5C172.075 78.475 170.225 77 167.975 77H165.475V69.5C165.475 68.125 164.35 67 162.975 67H147.975V62H152.975C154.35 62 155.475 60.875 155.475 59.5V54.5H160.475C163.225 54.5 165.475 52.25 165.475 49.5V48.475C172.8 51.425 178 58.625 178 67C178 72.2 175.975 76.95 172.725 80.5Z" fill="#E3F2FD"/>
</g>
<defs>
<filter id="filter0_i_1140_18534" x="0.5" y="0.939453" width="316" height="136" filterUnits="userSpaceOnUse" color-interpolation-filters="sRGB">
<feFlood flood-opacity="0" result="BackgroundImageFix"/>
<feBlend mode="normal" in="SourceGraphic" in2="BackgroundImageFix" result="shape"/>
<feColorMatrix in="SourceAlpha" type="matrix" values="0 0 0 0 0 0 0 0 0 0 0 0 0 0 0 0 0 0 127 0" result="hardAlpha"/>
<feMorphology radius="16" operator="erode" in="SourceAlpha" result="effect1_innerShadow_1140_18534"/>
<feOffset dy="4"/>
<feGaussianBlur stdDeviation="8"/>
<feComposite in2="hardAlpha" operator="arithmetic" k2="-1" k3="1"/>
<feColorMatrix type="matrix" values="0 0 0 0 0 0 0 0 0 0 0 0 0 0 0 0 0 0 0.08 0"/>
<feBlend mode="normal" in2="shape" result="effect1_innerShadow_1140_18534"/>
</filter>
</defs>
</svg>
