<svg width="317" height="133" viewBox="0 0 317 133" fill="none" xmlns="http://www.w3.org/2000/svg">
<g filter="url(#filter0_i_1140_18514)">
<rect x="0.5" y="0.939453" width="316" height="132" fill="url(#paint0_linear_1140_18514)"/>
<path d="M139 47H179V77H141.925L139 79.925V47ZM139 42C136.25 42 134.025 44.25 134.025 47L134 92L144 82H179C181.75 82 184 79.75 184 77V47C184 44.25 181.75 42 179 42H139ZM144 67H164V72H144V67ZM144 59.5H174V64.5H144V59.5ZM144 52H174V57H144V52Z" fill="#313234"/>
</g>
<defs>
<filter id="filter0_i_1140_18514" x="0.5" y="0.939453" width="316" height="136" filterUnits="userSpaceOnUse" color-interpolation-filters="sRGB">
<feFlood flood-opacity="0" result="BackgroundImageFix"/>
<feBlend mode="normal" in="SourceGraphic" in2="BackgroundImageFix" result="shape"/>
<feColorMatrix in="SourceAlpha" type="matrix" values="0 0 0 0 0 0 0 0 0 0 0 0 0 0 0 0 0 0 127 0" result="hardAlpha"/>
<feMorphology radius="16" operator="erode" in="SourceAlpha" result="effect1_innerShadow_1140_18514"/>
<feOffset dy="4"/>
<feGaussianBlur stdDeviation="8"/>
<feComposite in2="hardAlpha" operator="arithmetic" k2="-1" k3="1"/>
<feColorMatrix type="matrix" values="0 0 0 0 0 0 0 0 0 0 0 0 0 0 0 0 0 0 0.08 0"/>
<feBlend mode="normal" in2="shape" result="effect1_innerShadow_1140_18514"/>
</filter>
<linearGradient id="paint0_linear_1140_18514" x1="111" y1="5.50024" x2="191.438" y2="222.955" gradientUnits="userSpaceOnUse">
<stop stop-color="#FBFDFF"/>
<stop offset="1" stop-color="#D3D3D3"/>
</linearGradient>
</defs>
</svg>
