<svg width="317" height="133" viewBox="0 0 317 133" fill="none" xmlns="http://www.w3.org/2000/svg">
<g filter="url(#filter0_i_1140_18514)">
<rect x="0.5" y="0.939453" width="316" height="132" fill="#001439"/>
</g>
<path d="M138 47H178V77H140.925L138 79.925V47ZM138 42C135.25 42 133.025 44.25 133.025 47L133 92L143 82H178C180.75 82 183 79.75 183 77V47C183 44.25 180.75 42 178 42H138ZM143 67H163V72H143V67ZM143 59.5H173V64.5H143V59.5ZM143 52H173V57H143V52Z" fill="#E3F2FD"/>
<defs>
<filter id="filter0_i_1140_18514" x="0.5" y="0.939453" width="316" height="136" filterUnits="userSpaceOnUse" color-interpolation-filters="sRGB">
<feFlood flood-opacity="0" result="BackgroundImageFix"/>
<feBlend mode="normal" in="SourceGraphic" in2="BackgroundImageFix" result="shape"/>
<feColorMatrix in="SourceAlpha" type="matrix" values="0 0 0 0 0 0 0 0 0 0 0 0 0 0 0 0 0 0 127 0" result="hardAlpha"/>
<feMorphology radius="16" operator="erode" in="SourceAlpha" result="effect1_innerShadow_1140_18514"/>
<feOffset dy="4"/>
<feGaussianBlur stdDeviation="8"/>
<feComposite in2="hardAlpha" operator="arithmetic" k2="-1" k3="1"/>
<feColorMatrix type="matrix" values="0 0 0 0 0 0 0 0 0 0 0 0 0 0 0 0 0 0 0.08 0"/>
<feBlend mode="normal" in2="shape" result="effect1_innerShadow_1140_18514"/>
</filter>
</defs>
</svg>
