<svg width="432" height="173" viewBox="0 0 432 173" fill="none" xmlns="http://www.w3.org/2000/svg">
<g filter="url(#filter0_i_1213_9210)">
<rect x="0.333008" y="0.878906" width="431.333" height="172" fill="url(#paint0_linear_1213_9210)"/>
<g clip-path="url(#clip0_1213_9210)">
<path d="M244 59V115H188V59H244ZM248.4 51H183.6C181.6 51 180 52.6 180 54.6V119.4C180 121 181.6 123 183.6 123H248.4C250 123 252 121 252 119.4V54.6C252 52.6 250 51 248.4 51ZM212 67H236V75H212V67ZM212 83H236V91H212V83ZM212 99H236V107H212V99ZM196 67H204V75H196V67ZM196 83H204V91H196V83ZM196 99H204V107H196V99Z" fill="black"/>
</g>
<g clip-path="url(#clip1_1213_9210)">
<path d="M244 59V115H188V59H244ZM248.4 51H183.6C181.6 51 180 52.6 180 54.6V119.4C180 121 181.6 123 183.6 123H248.4C250 123 252 121 252 119.4V54.6C252 52.6 250 51 248.4 51ZM212 67H236V75H212V67ZM212 83H236V91H212V83ZM212 99H236V107H212V99ZM196 67H204V75H196V67ZM196 83H204V91H196V83ZM196 99H204V107H196V99Z" fill="#313234"/>
</g>
</g>
<defs>
<filter id="filter0_i_1213_9210" x="0.333008" y="0.878906" width="431.333" height="176" filterUnits="userSpaceOnUse" color-interpolation-filters="sRGB">
<feFlood flood-opacity="0" result="BackgroundImageFix"/>
<feBlend mode="normal" in="SourceGraphic" in2="BackgroundImageFix" result="shape"/>
<feColorMatrix in="SourceAlpha" type="matrix" values="0 0 0 0 0 0 0 0 0 0 0 0 0 0 0 0 0 0 127 0" result="hardAlpha"/>
<feMorphology radius="16" operator="erode" in="SourceAlpha" result="effect1_innerShadow_1213_9210"/>
<feOffset dy="4"/>
<feGaussianBlur stdDeviation="8"/>
<feComposite in2="hardAlpha" operator="arithmetic" k2="-1" k3="1"/>
<feColorMatrix type="matrix" values="0 0 0 0 0 0 0 0 0 0 0 0 0 0 0 0 0 0 0.08 0"/>
<feBlend mode="normal" in2="shape" result="effect1_innerShadow_1213_9210"/>
</filter>
<linearGradient id="paint0_linear_1213_9210" x1="151.163" y1="6.82175" x2="252.3" y2="293.23" gradientUnits="userSpaceOnUse">
<stop stop-color="#FBFDFF"/>
<stop offset="1" stop-color="#D3D3D3"/>
</linearGradient>
<clipPath id="clip0_1213_9210">
<rect width="96" height="96" fill="white" transform="translate(168 39)"/>
</clipPath>
<clipPath id="clip1_1213_9210">
<rect width="96" height="96" fill="white" transform="translate(168 39)"/>
</clipPath>
</defs>
</svg>
