<svg width="432" height="151" viewBox="0 0 432 151" fill="none" xmlns="http://www.w3.org/2000/svg">
<g filter="url(#filter0_i_1140_18413)">
<rect y="0.0605469" width="431.333" height="150" fill="url(#paint0_linear_1140_18413)"/>
<path d="M218.407 105.174V71.8393H230.996C233.309 71.8393 235.238 72.2028 236.784 72.9298C238.329 73.6569 239.491 74.666 240.269 75.9573C241.047 77.2377 241.436 78.7135 241.436 80.3845C241.436 81.6866 241.19 82.8314 240.699 83.8189C240.208 84.7955 239.532 85.5985 238.672 86.2278C237.823 86.8463 236.851 87.2858 235.755 87.5462V87.8718C236.953 87.926 238.074 88.2841 239.118 88.946C240.172 89.6079 241.026 90.5357 241.681 91.7293C242.337 92.9121 242.664 94.3227 242.664 95.9612C242.664 97.73 242.25 99.3088 241.42 100.698C240.602 102.076 239.389 103.166 237.782 103.969C236.175 104.772 234.194 105.174 231.84 105.174H218.407ZM225.055 99.4119H230.474C232.327 99.4119 233.678 99.0375 234.527 98.2888C235.377 97.5292 235.801 96.5201 235.801 95.2613C235.801 94.339 235.592 93.5252 235.172 92.8199C234.752 92.1145 234.154 91.5611 233.376 91.1596C232.608 90.7581 231.692 90.5574 230.628 90.5574H225.055V99.4119ZM225.055 85.7884H229.983C230.894 85.7884 231.702 85.6202 232.408 85.2838C233.125 84.9365 233.688 84.4482 234.097 83.8189C234.517 83.1895 234.727 82.4354 234.727 81.5564C234.727 80.352 234.322 79.3808 233.514 78.6429C232.716 77.905 231.579 77.5361 230.106 77.5361H225.055V85.7884Z" fill="#122953"/>
<path d="M260.607 71.8393V105.174H253.959V78.529H253.775L246.575 83.3143V77.0641L254.359 71.8393H260.607Z" fill="#122953"/>
<path d="M228.644 53.7776L195.758 88.6732L183.538 75.7172L187.601 71.4087L195.758 80.0563L224.58 49.4996L228.644 53.7776ZM199.822 99.0625C187.112 99.0625 176.764 88.0926 176.764 74.6172C176.764 61.1417 187.112 50.1719 199.822 50.1719C204.347 50.1719 208.584 51.5775 212.158 53.9915L216.337 49.5607C211.639 46.1078 205.961 44.0605 199.822 44.0605C183.912 44.0605 171 57.7499 171 74.6172C171 91.4844 183.912 105.174 199.822 105.174C204.808 105.174 209.506 103.829 213.599 101.446L209.276 96.8624C206.393 98.268 203.194 99.0625 199.822 99.0625Z" fill="#122953"/>
</g>
<defs>
<filter id="filter0_i_1140_18413" x="0" y="0.0605469" width="431.333" height="154" filterUnits="userSpaceOnUse" color-interpolation-filters="sRGB">
<feFlood flood-opacity="0" result="BackgroundImageFix"/>
<feBlend mode="normal" in="SourceGraphic" in2="BackgroundImageFix" result="shape"/>
<feColorMatrix in="SourceAlpha" type="matrix" values="0 0 0 0 0 0 0 0 0 0 0 0 0 0 0 0 0 0 127 0" result="hardAlpha"/>
<feMorphology radius="16" operator="erode" in="SourceAlpha" result="effect1_innerShadow_1140_18413"/>
<feOffset dy="4"/>
<feGaussianBlur stdDeviation="8"/>
<feComposite in2="hardAlpha" operator="arithmetic" k2="-1" k3="1"/>
<feColorMatrix type="matrix" values="0 0 0 0 0 0 0 0 0 0 0 0 0 0 0 0 0 0 0.08 0"/>
<feBlend mode="normal" in2="shape" result="effect1_innerShadow_1140_18413"/>
</filter>
<linearGradient id="paint0_linear_1140_18413" x1="127.997" y1="-21.5003" x2="215.091" y2="265.71" gradientUnits="userSpaceOnUse">
<stop stop-color="#FBFDFF"/>
<stop offset="1" stop-color="#DAECFC"/>
</linearGradient>
</defs>
</svg>
