<svg width="317" height="133" viewBox="0 0 317 133" fill="none" xmlns="http://www.w3.org/2000/svg">
<g filter="url(#filter0_i_1140_18534)">
<rect x="0.5" y="0.939453" width="316" height="132" fill="url(#paint0_linear_1140_18534)"/>
<path d="M159 43C145.752 43 135 53.752 135 67C135 80.248 145.752 91 159 91C172.248 91 183 80.248 183 67C183 53.752 172.248 43 159 43ZM139.8 67C139.8 65.536 139.992 64.096 140.304 62.728L151.776 74.2V76.6C151.776 79.24 153.936 81.4 156.576 81.4V86.032C147.144 84.832 139.8 76.768 139.8 67ZM173.136 79.96C172.512 78.016 170.736 76.6 168.576 76.6H166.176V69.4C166.176 68.08 165.096 67 163.776 67H149.376V62.2H154.176C155.496 62.2 156.576 61.12 156.576 59.8V55H161.376C164.016 55 166.176 52.84 166.176 50.2V49.216C173.208 52.048 178.2 58.96 178.2 67C178.2 71.992 176.256 76.552 173.136 79.96Z" fill="#313234"/>
</g>
<defs>
<filter id="filter0_i_1140_18534" x="0.5" y="0.939453" width="316" height="136" filterUnits="userSpaceOnUse" color-interpolation-filters="sRGB">
<feFlood flood-opacity="0" result="BackgroundImageFix"/>
<feBlend mode="normal" in="SourceGraphic" in2="BackgroundImageFix" result="shape"/>
<feColorMatrix in="SourceAlpha" type="matrix" values="0 0 0 0 0 0 0 0 0 0 0 0 0 0 0 0 0 0 127 0" result="hardAlpha"/>
<feMorphology radius="16" operator="erode" in="SourceAlpha" result="effect1_innerShadow_1140_18534"/>
<feOffset dy="4"/>
<feGaussianBlur stdDeviation="8"/>
<feComposite in2="hardAlpha" operator="arithmetic" k2="-1" k3="1"/>
<feColorMatrix type="matrix" values="0 0 0 0 0 0 0 0 0 0 0 0 0 0 0 0 0 0 0.08 0"/>
<feBlend mode="normal" in2="shape" result="effect1_innerShadow_1140_18534"/>
</filter>
<linearGradient id="paint0_linear_1140_18534" x1="111" y1="5.50024" x2="191.438" y2="222.955" gradientUnits="userSpaceOnUse">
<stop stop-color="#FBFDFF"/>
<stop offset="1" stop-color="#D3D3D3"/>
</linearGradient>
</defs>
</svg>
