<svg width="242" height="42" viewBox="0 0 242 42" fill="none" xmlns="http://www.w3.org/2000/svg">
<path d="M14.4219 32.1595C22.3643 32.1595 28.8028 26.2549 28.8028 18.9711C28.8028 11.6874 22.3643 5.78271 14.4219 5.78271C6.47956 5.78271 0.0410156 11.6874 0.0410156 18.9711C0.0410156 26.2549 6.47956 32.1595 14.4219 32.1595Z" fill="#056EAF"/>
<path d="M23.0912 29.1832C19.5576 24.247 14.627 20.2151 8.83354 17.5397C6.28607 16.3716 3.57424 15.4296 0.739153 14.8267C0.533712 15.4296 0.32827 16.0701 0.246094 16.7107C8.38157 18.8209 15.6542 22.8527 21.4066 28.2788C21.7763 28.6556 22.1872 28.9948 22.557 29.3716C22.6392 29.4846 22.7625 29.56 22.8446 29.6354C23.009 29.5223 23.1323 29.447 23.2966 29.3339C23.1733 29.3339 23.1323 29.2585 23.0912 29.1832V29.1832Z" fill="#E98782"/>
<path d="M22.1055 30.1248C17.3392 25.1509 8.54636 20.2523 0.0410883 18.1045C0.0410883 18.3683 0 18.6697 0 18.9712C0 19.2349 0 19.461 0.0410883 19.7248C8.13548 21.7596 15.4492 25.4523 21.5713 30.4262C21.7357 30.3509 21.9411 30.2378 22.1055 30.1248V30.1248Z" fill="#8AA4D4"/>
<path d="M28.4332 15.9944L19.3116 15.9191L16.5998 7.93066L13.6825 15.8437L8.75195 15.806C8.75195 15.806 13.6415 18.1799 17.175 21.2321C21.0373 24.5857 23.5437 28.6176 23.6259 28.7307L20.9552 20.8553L28.4332 15.9944Z" fill="#FFC72C"/>
<path d="M48.4618 16.5291C48.388 15.7843 48.071 15.2057 47.5108 14.7933C46.9507 14.3809 46.1905 14.1747 45.2303 14.1747C44.5778 14.1747 44.0269 14.267 43.5776 14.4517C43.1283 14.6302 42.7836 14.8795 42.5435 15.1996C42.3096 15.5196 42.1926 15.8828 42.1926 16.2891C42.1803 16.6276 42.2511 16.9231 42.405 17.1754C42.565 17.4278 42.7836 17.6463 43.0605 17.831C43.3375 18.0095 43.6576 18.1664 44.0208 18.3018C44.3839 18.4311 44.7717 18.5419 45.1841 18.6342L46.883 19.0405C47.7078 19.2251 48.4649 19.4714 49.1543 19.7791C49.8437 20.0869 50.4408 20.4654 50.9455 20.9148C51.4502 21.3641 51.8411 21.8935 52.1181 22.5028C52.4012 23.1122 52.5459 23.8108 52.552 24.5987C52.5459 25.7559 52.2504 26.7592 51.6657 27.6087C51.0871 28.4519 50.2499 29.1075 49.1543 29.5753C48.0648 30.0369 46.7507 30.2678 45.2118 30.2678C43.6853 30.2678 42.3558 30.0339 41.2232 29.5661C40.0968 29.0982 39.2166 28.4058 38.5826 27.4886C37.9547 26.5653 37.6254 25.4235 37.5946 24.0632H41.4632C41.5063 24.6972 41.6879 25.2266 42.008 25.6513C42.3342 26.0698 42.7682 26.3868 43.3098 26.6023C43.8577 26.8116 44.4763 26.9162 45.1657 26.9162C45.8427 26.9162 46.4306 26.8177 46.9292 26.6207C47.4339 26.4238 47.8248 26.1499 48.1017 25.799C48.3787 25.4482 48.5172 25.045 48.5172 24.5895C48.5172 24.1648 48.391 23.8078 48.1387 23.5185C47.8925 23.2292 47.5293 22.983 47.0492 22.7798C46.5752 22.5767 45.9935 22.392 45.3042 22.2259L43.2452 21.7088C41.651 21.321 40.3922 20.7147 39.4689 19.8899C38.5456 19.0651 38.0871 17.9541 38.0932 16.5568C38.0871 15.4119 38.3917 14.4117 39.0073 13.5561C39.629 12.7005 40.4815 12.0327 41.5648 11.5526C42.6481 11.0724 43.8792 10.8324 45.258 10.8324C46.6614 10.8324 47.8863 11.0724 48.9327 11.5526C49.9853 12.0327 50.8039 12.7005 51.3887 13.5561C51.9734 14.4117 52.275 15.4027 52.2935 16.5291H48.4618ZM59.239 11.0909V30H55.2411V11.0909H59.239ZM61.8081 14.3871V11.0909H77.3379V14.3871H71.5488V30H67.5971V14.3871H61.8081ZM79.8954 30V11.0909H92.6369V14.3871H83.8933V18.8928H91.9814V22.1889H83.8933V26.7038H92.6738V30H79.8954Z" fill="#003366"/>
<rect x="103.311" y="0.25" width="41.5" height="0.5" transform="rotate(90 103.311 0.25)" stroke="#FFC72C" stroke-width="0.5"/>
<path d="M112.092 11.8594V11H118.092V11.8594H115.576V19H114.607V11.8594H112.092ZM119.737 19V11H120.706V14.5625H124.971V11H125.94V19H124.971V15.4219H120.706V19H119.737ZM128.029 19V11H132.858V11.8594H128.998V14.5625H132.608V15.4219H128.998V18.1406H132.92V19H128.029ZM137.997 19V11H138.966V14.5625H143.232V11H144.201V19H143.232V15.4219H138.966V19H137.997ZM151.54 11H152.509V16.2969C152.509 16.8437 152.38 17.332 152.122 17.7617C151.867 18.1888 151.506 18.526 151.04 18.7734C150.574 19.0182 150.027 19.1406 149.399 19.1406C148.772 19.1406 148.225 19.0182 147.759 18.7734C147.293 18.526 146.931 18.1888 146.673 17.7617C146.418 17.332 146.29 16.8437 146.29 16.2969V11H147.259V16.2188C147.259 16.6094 147.345 16.957 147.517 17.2617C147.688 17.5638 147.933 17.8021 148.251 17.9766C148.571 18.1484 148.954 18.2344 149.399 18.2344C149.845 18.2344 150.228 18.1484 150.548 17.9766C150.868 17.8021 151.113 17.5638 151.282 17.2617C151.454 16.957 151.54 16.6094 151.54 16.2188V11ZM154.593 19V11H157.39C157.948 11 158.407 11.0964 158.769 11.2891C159.131 11.4792 159.401 11.7357 159.578 12.0586C159.755 12.3789 159.843 12.7344 159.843 13.125C159.843 13.4687 159.782 13.7526 159.66 13.9766C159.54 14.2005 159.381 14.3776 159.183 14.5078C158.988 14.638 158.776 14.7344 158.546 14.7969V14.875C158.791 14.8906 159.037 14.9766 159.285 15.1328C159.532 15.2891 159.739 15.513 159.906 15.8047C160.073 16.0964 160.156 16.4531 160.156 16.875C160.156 17.276 160.065 17.6367 159.882 17.957C159.7 18.2773 159.412 18.5312 159.019 18.7187C158.626 18.9062 158.114 19 157.484 19H154.593ZM155.562 18.1406H157.484C158.117 18.1406 158.566 18.0182 158.832 17.7734C159.1 17.526 159.234 17.2266 159.234 16.875C159.234 16.6042 159.165 16.3542 159.027 16.125C158.889 15.8932 158.692 15.7083 158.437 15.5703C158.182 15.4297 157.88 15.3594 157.531 15.3594H155.562V18.1406ZM155.562 14.5156H157.359C157.651 14.5156 157.914 14.4583 158.148 14.3437C158.385 14.2292 158.573 14.0677 158.711 13.8594C158.851 13.651 158.921 13.4062 158.921 13.125C158.921 12.7734 158.799 12.4753 158.554 12.2305C158.31 11.9831 157.921 11.8594 157.39 11.8594H155.562V14.5156ZM165.141 19V11H169.938V11.8594H166.11V14.5625H169.579V15.4219H166.11V19H165.141ZM178.497 15C178.497 15.8437 178.345 16.5729 178.04 17.1875C177.736 17.8021 177.318 18.276 176.787 18.6094C176.255 18.9427 175.649 19.1094 174.966 19.1094C174.284 19.1094 173.677 18.9427 173.146 18.6094C172.615 18.276 172.197 17.8021 171.892 17.1875C171.587 16.5729 171.435 15.8437 171.435 15C171.435 14.1562 171.587 13.4271 171.892 12.8125C172.197 12.1979 172.615 11.724 173.146 11.3906C173.677 11.0573 174.284 10.8906 174.966 10.8906C175.649 10.8906 176.255 11.0573 176.787 11.3906C177.318 11.724 177.736 12.1979 178.04 12.8125C178.345 13.4271 178.497 14.1562 178.497 15ZM177.56 15C177.56 14.3073 177.444 13.7227 177.212 13.2461C176.983 12.7695 176.672 12.4089 176.279 12.1641C175.888 11.9193 175.451 11.7969 174.966 11.7969C174.482 11.7969 174.043 11.9193 173.65 12.1641C173.259 12.4089 172.948 12.7695 172.716 13.2461C172.487 13.7227 172.372 14.3073 172.372 15C172.372 15.6927 172.487 16.2773 172.716 16.7539C172.948 17.2305 173.259 17.5911 173.65 17.8359C174.043 18.0807 174.482 18.2031 174.966 18.2031C175.451 18.2031 175.888 18.0807 176.279 17.8359C176.672 17.5911 176.983 17.2305 177.212 16.7539C177.444 16.2773 177.56 15.6927 177.56 15ZM180.276 19V11H182.979C183.604 11 184.118 11.1068 184.519 11.3203C184.92 11.5312 185.216 11.8216 185.409 12.1914C185.602 12.5612 185.698 12.9818 185.698 13.4531C185.698 13.9245 185.602 14.3424 185.409 14.707C185.216 15.0716 184.921 15.3581 184.522 15.5664C184.124 15.7721 183.615 15.875 182.995 15.875H180.808V15H182.964C183.391 15 183.735 14.9375 183.995 14.8125C184.258 14.6875 184.448 14.5104 184.565 14.2812C184.685 14.0495 184.745 13.7734 184.745 13.4531C184.745 13.1328 184.685 12.8529 184.565 12.6133C184.446 12.3737 184.254 12.1888 183.991 12.0586C183.728 11.9258 183.381 11.8594 182.948 11.8594H181.245V19H180.276ZM184.042 15.4062L186.011 19H184.886L182.948 15.4062H184.042ZM190.269 11.8594V11H196.269V11.8594H193.753V19H192.784V11.8594H190.269ZM197.914 19V11H202.742V11.8594H198.883V14.5625H202.492V15.4219H198.883V18.1406H202.804V19H197.914ZM209.013 13C208.966 12.6042 208.776 12.2969 208.443 12.0781C208.109 11.8594 207.701 11.75 207.216 11.75C206.862 11.75 206.552 11.8073 206.287 11.9219C206.024 12.0365 205.818 12.194 205.669 12.3945C205.524 12.5951 205.451 12.8229 205.451 13.0781C205.451 13.2917 205.501 13.4753 205.603 13.6289C205.707 13.7799 205.84 13.9062 206.001 14.0078C206.163 14.1068 206.332 14.1888 206.509 14.2539C206.686 14.3164 206.849 14.3672 206.997 14.4062L207.81 14.625C208.018 14.6797 208.25 14.7552 208.505 14.8516C208.763 14.9479 209.009 15.0794 209.244 15.2461C209.481 15.4102 209.676 15.6211 209.829 15.8789C209.983 16.1367 210.06 16.4531 210.06 16.8281C210.06 17.2604 209.947 17.651 209.72 18C209.496 18.349 209.168 18.6263 208.736 18.832C208.306 19.0378 207.784 19.1406 207.169 19.1406C206.596 19.1406 206.1 19.0482 205.681 18.8633C205.264 18.6784 204.936 18.4206 204.697 18.0898C204.46 17.7591 204.326 17.375 204.294 16.9375H205.294C205.32 17.2396 205.422 17.4896 205.599 17.6875C205.779 17.8828 206.005 18.0286 206.279 18.125C206.555 18.2187 206.852 18.2656 207.169 18.2656C207.539 18.2656 207.871 18.2057 208.165 18.0859C208.46 17.9635 208.693 17.7943 208.865 17.5781C209.037 17.3594 209.122 17.1042 209.122 16.8125C209.122 16.5469 209.048 16.3307 208.9 16.1641C208.751 15.9974 208.556 15.862 208.314 15.7578C208.072 15.6536 207.81 15.5625 207.529 15.4844L206.544 15.2031C205.919 15.0234 205.425 14.7669 205.06 14.4336C204.695 14.1003 204.513 13.6641 204.513 13.125C204.513 12.6771 204.634 12.2865 204.876 11.9531C205.121 11.6172 205.449 11.3568 205.861 11.1719C206.275 10.9844 206.737 10.8906 207.247 10.8906C207.763 10.8906 208.221 10.9831 208.622 11.168C209.024 11.3503 209.341 11.6003 209.576 11.918C209.813 12.2357 209.938 12.5964 209.951 13H209.013ZM211.365 11.8594V11H217.365V11.8594H214.85V19H213.881V11.8594H211.365ZM219.979 11V19H219.01V11H219.979ZM228.415 11V19H227.478L223.118 12.7187H223.04V19H222.071V11H223.009L227.384 17.2969H227.462V11H228.415ZM235.972 13.5C235.887 13.237 235.773 13.0013 235.633 12.793C235.495 12.582 235.329 12.4023 235.137 12.2539C234.946 12.1055 234.73 11.9922 234.488 11.9141C234.246 11.8359 233.98 11.7969 233.691 11.7969C233.217 11.7969 232.786 11.9193 232.398 12.1641C232.01 12.4089 231.702 12.7695 231.472 13.2461C231.243 13.7227 231.129 14.3073 231.129 15C231.129 15.6927 231.245 16.2773 231.476 16.7539C231.708 17.2305 232.022 17.5911 232.418 17.8359C232.814 18.0807 233.259 18.2031 233.754 18.2031C234.212 18.2031 234.616 18.1055 234.965 17.9102C235.316 17.7122 235.59 17.4336 235.785 17.0742C235.983 16.7122 236.082 16.2865 236.082 15.7969L236.379 15.8594H233.972V15H237.019V15.8594C237.019 16.5182 236.879 17.0911 236.597 17.5781C236.319 18.0651 235.933 18.4427 235.441 18.7109C234.952 18.9766 234.389 19.1094 233.754 19.1094C233.045 19.1094 232.423 18.9427 231.887 18.6094C231.353 18.276 230.936 17.8021 230.637 17.1875C230.34 16.5729 230.191 15.8437 230.191 15C230.191 14.3672 230.276 13.7982 230.445 13.293C230.617 12.7852 230.859 12.3529 231.172 11.9961C231.484 11.6393 231.854 11.3659 232.281 11.1758C232.708 10.9857 233.178 10.8906 233.691 10.8906C234.113 10.8906 234.506 10.9544 234.871 11.082C235.238 11.207 235.565 11.3854 235.851 11.6172C236.14 11.8464 236.381 12.1211 236.574 12.4414C236.767 12.7591 236.9 13.112 236.972 13.5H235.972ZM112.092 24.8594V24H118.092V24.8594H115.576V32H114.607V24.8594H112.092ZM126.154 28C126.154 28.8437 126.002 29.5729 125.697 30.1875C125.392 30.8021 124.974 31.276 124.443 31.6094C123.912 31.9427 123.305 32.1094 122.623 32.1094C121.94 32.1094 121.334 31.9427 120.802 31.6094C120.271 31.276 119.853 30.8021 119.548 30.1875C119.244 29.5729 119.091 28.8437 119.091 28C119.091 27.1562 119.244 26.4271 119.548 25.8125C119.853 25.1979 120.271 24.724 120.802 24.3906C121.334 24.0573 121.94 23.8906 122.623 23.8906C123.305 23.8906 123.912 24.0573 124.443 24.3906C124.974 24.724 125.392 25.1979 125.697 25.8125C126.002 26.4271 126.154 27.1562 126.154 28ZM125.216 28C125.216 27.3073 125.101 26.7227 124.869 26.2461C124.64 25.7695 124.328 25.4089 123.935 25.1641C123.545 24.9193 123.107 24.7969 122.623 24.7969C122.138 24.7969 121.699 24.9193 121.306 25.1641C120.916 25.4089 120.604 25.7695 120.373 26.2461C120.143 26.7227 120.029 27.3073 120.029 28C120.029 28.6927 120.143 29.2773 120.373 29.7539C120.604 30.2305 120.916 30.5911 121.306 30.8359C121.699 31.0807 122.138 31.2031 122.623 31.2031C123.107 31.2031 123.545 31.0807 123.935 30.8359C124.328 30.5911 124.64 30.2305 124.869 29.7539C125.101 29.2773 125.216 28.6927 125.216 28ZM134.683 28C134.683 28.8437 134.53 29.5729 134.226 30.1875C133.921 30.8021 133.503 31.276 132.972 31.6094C132.441 31.9427 131.834 32.1094 131.152 32.1094C130.469 32.1094 129.863 31.9427 129.331 31.6094C128.8 31.276 128.382 30.8021 128.077 30.1875C127.773 29.5729 127.62 28.8437 127.62 28C127.62 27.1562 127.773 26.4271 128.077 25.8125C128.382 25.1979 128.8 24.724 129.331 24.3906C129.863 24.0573 130.469 23.8906 131.152 23.8906C131.834 23.8906 132.441 24.0573 132.972 24.3906C133.503 24.724 133.921 25.1979 134.226 25.8125C134.53 26.4271 134.683 27.1562 134.683 28ZM133.745 28C133.745 27.3073 133.629 26.7227 133.398 26.2461C133.168 25.7695 132.857 25.4089 132.464 25.1641C132.073 24.9193 131.636 24.7969 131.152 24.7969C130.667 24.7969 130.228 24.9193 129.835 25.1641C129.445 25.4089 129.133 25.7695 128.902 26.2461C128.672 26.7227 128.558 27.3073 128.558 28C128.558 28.6927 128.672 29.2773 128.902 29.7539C129.133 30.2305 129.445 30.5911 129.835 30.8359C130.228 31.0807 130.667 31.2031 131.152 31.2031C131.636 31.2031 132.073 31.0807 132.464 30.8359C132.857 30.5911 133.168 30.2305 133.398 29.7539C133.629 29.2773 133.745 28.6927 133.745 28ZM136.462 32V24H137.43V31.1406H141.149V32H136.462ZM147.174 26C147.127 25.6042 146.937 25.2969 146.604 25.0781C146.271 24.8594 145.862 24.75 145.377 24.75C145.023 24.75 144.713 24.8073 144.448 24.9219C144.185 25.0365 143.979 25.194 143.83 25.3945C143.685 25.5951 143.612 25.8229 143.612 26.0781C143.612 26.2917 143.663 26.4753 143.764 26.6289C143.868 26.7799 144.001 26.9062 144.163 27.0078C144.324 27.1068 144.493 27.1888 144.67 27.2539C144.847 27.3164 145.01 27.3672 145.159 27.4062L145.971 27.625C146.179 27.6797 146.411 27.7552 146.666 27.8516C146.924 27.9479 147.17 28.0794 147.405 28.2461C147.642 28.4102 147.837 28.6211 147.991 28.8789C148.144 29.1367 148.221 29.4531 148.221 29.8281C148.221 30.2604 148.108 30.651 147.881 31C147.657 31.349 147.329 31.6263 146.897 31.832C146.467 32.0378 145.945 32.1406 145.33 32.1406C144.758 32.1406 144.261 32.0482 143.842 31.8633C143.426 31.6784 143.097 31.4206 142.858 31.0898C142.621 30.7591 142.487 30.375 142.455 29.9375H143.455C143.482 30.2396 143.583 30.4896 143.76 30.6875C143.94 30.8828 144.166 31.0286 144.44 31.125C144.716 31.2187 145.013 31.2656 145.33 31.2656C145.7 31.2656 146.032 31.2057 146.327 31.0859C146.621 30.9635 146.854 30.7943 147.026 30.5781C147.198 30.3594 147.284 30.1042 147.284 29.8125C147.284 29.5469 147.209 29.3307 147.061 29.1641C146.913 28.9974 146.717 28.862 146.475 28.7578C146.233 28.6536 145.971 28.5625 145.69 28.4844L144.705 28.2031C144.08 28.0234 143.586 27.7669 143.221 27.4336C142.857 27.1003 142.674 26.6641 142.674 26.125C142.674 25.6771 142.795 25.2865 143.038 24.9531C143.282 24.6172 143.61 24.3568 144.022 24.1719C144.436 23.9844 144.898 23.8906 145.409 23.8906C145.924 23.8906 146.383 23.9831 146.784 24.168C147.185 24.3503 147.502 24.6003 147.737 24.918C147.974 25.2357 148.099 25.5964 148.112 26H147.174ZM155.348 32.1094C154.822 32.1094 154.369 32.013 153.989 31.8203C153.609 31.6276 153.316 31.3633 153.11 31.0273C152.904 30.6914 152.801 30.3073 152.801 29.875C152.801 29.5417 152.872 29.2461 153.012 28.9883C153.156 28.7279 153.352 28.487 153.602 28.2656C153.855 28.0417 154.145 27.8177 154.473 27.5937L155.629 26.7344C155.856 26.5859 156.037 26.4271 156.172 26.2578C156.31 26.0885 156.379 25.8672 156.379 25.5937C156.379 25.3906 156.29 25.194 156.11 25.0039C155.933 24.8138 155.7 24.7188 155.411 24.7188C155.208 24.7188 155.028 24.7708 154.872 24.875C154.718 24.9766 154.597 25.1068 154.508 25.2656C154.422 25.4219 154.379 25.5833 154.379 25.75C154.379 25.9375 154.43 26.1276 154.532 26.3203C154.636 26.5104 154.768 26.7057 154.926 26.9062C155.088 27.1042 155.254 27.3073 155.426 27.5156L159.098 32H157.989L154.958 28.3437C154.676 28.0052 154.421 27.6979 154.192 27.4219C153.963 27.1458 153.781 26.8737 153.645 26.6055C153.51 26.3372 153.442 26.0469 153.442 25.7344C153.442 25.375 153.521 25.0599 153.68 24.7891C153.842 24.5156 154.067 24.3034 154.356 24.1523C154.648 23.9987 154.989 23.9219 155.379 23.9219C155.781 23.9219 156.126 24 156.415 24.1562C156.704 24.3099 156.926 24.5143 157.083 24.7695C157.239 25.0221 157.317 25.2969 157.317 25.5937C157.317 25.9766 157.222 26.3086 157.032 26.5898C156.842 26.8711 156.583 27.1328 156.254 27.375L154.661 28.5625C154.301 28.8281 154.058 29.0859 153.93 29.3359C153.803 29.5859 153.739 29.7656 153.739 29.875C153.739 30.125 153.804 30.3581 153.934 30.5742C154.064 30.7904 154.248 30.9648 154.485 31.0977C154.722 31.2305 154.999 31.2969 155.317 31.2969C155.619 31.2969 155.913 31.2331 156.2 31.1055C156.486 30.9753 156.745 30.7878 156.977 30.543C157.212 30.2982 157.396 30.0039 157.532 29.6602C157.67 29.3164 157.739 28.9297 157.739 28.5H158.629C158.629 29.0312 158.568 29.4648 158.446 29.8008C158.324 30.1367 158.185 30.3997 158.032 30.5898C157.878 30.7799 157.754 30.9219 157.661 31.0156C157.629 31.0547 157.601 31.0937 157.575 31.1328C157.549 31.1719 157.52 31.2109 157.489 31.25C157.231 31.5391 156.906 31.7552 156.512 31.8984C156.119 32.0391 155.731 32.1094 155.348 32.1094ZM163.638 32V24H166.341C166.966 24 167.479 24.1068 167.88 24.3203C168.281 24.5312 168.578 24.8216 168.77 25.1914C168.963 25.5612 169.059 25.9818 169.059 26.4531C169.059 26.9245 168.963 27.3424 168.77 27.707C168.578 28.0716 168.282 28.3581 167.884 28.5664C167.485 28.7721 166.976 28.875 166.356 28.875H164.169V28H166.325C166.752 28 167.096 27.9375 167.356 27.8125C167.619 27.6875 167.809 27.5104 167.927 27.2812C168.046 27.0495 168.106 26.7734 168.106 26.4531C168.106 26.1328 168.046 25.8529 167.927 25.6133C167.807 25.3737 167.615 25.1888 167.352 25.0586C167.089 24.9258 166.742 24.8594 166.309 24.8594H164.606V32H163.638ZM167.403 28.4062L169.372 32H168.247L166.309 28.4062H167.403ZM170.824 32V24H175.652V24.8594H171.792V27.5625H175.402V28.4219H171.792V31.1406H175.714V32H170.824ZM181.923 26C181.876 25.6042 181.686 25.2969 181.353 25.0781C181.019 24.8594 180.61 24.75 180.126 24.75C179.772 24.75 179.462 24.8073 179.196 24.9219C178.933 25.0365 178.728 25.194 178.579 25.3945C178.433 25.5951 178.36 25.8229 178.36 26.0781C178.36 26.2917 178.411 26.4753 178.513 26.6289C178.617 26.7799 178.75 26.9062 178.911 27.0078C179.073 27.1068 179.242 27.1888 179.419 27.2539C179.596 27.3164 179.759 27.3672 179.907 27.4062L180.72 27.625C180.928 27.6797 181.16 27.7552 181.415 27.8516C181.673 27.9479 181.919 28.0794 182.153 28.2461C182.39 28.4102 182.586 28.6211 182.739 28.8789C182.893 29.1367 182.97 29.4531 182.97 29.8281C182.97 30.2604 182.856 30.651 182.63 31C182.406 31.349 182.078 31.6263 181.646 31.832C181.216 32.0378 180.694 32.1406 180.079 32.1406C179.506 32.1406 179.01 32.0482 178.591 31.8633C178.174 31.6784 177.846 31.4206 177.606 31.0898C177.369 30.7591 177.235 30.375 177.204 29.9375H178.204C178.23 30.2396 178.332 30.4896 178.509 30.6875C178.688 30.8828 178.915 31.0286 179.188 31.125C179.465 31.2187 179.761 31.2656 180.079 31.2656C180.449 31.2656 180.781 31.2057 181.075 31.0859C181.369 30.9635 181.603 30.7943 181.774 30.5781C181.946 30.3594 182.032 30.1042 182.032 29.8125C182.032 29.5469 181.958 29.3307 181.81 29.1641C181.661 28.9974 181.466 28.862 181.224 28.7578C180.981 28.6536 180.72 28.5625 180.438 28.4844L179.454 28.2031C178.829 28.0234 178.334 27.7669 177.97 27.4336C177.605 27.1003 177.423 26.6641 177.423 26.125C177.423 25.6771 177.544 25.2865 177.786 24.9531C178.031 24.6172 178.359 24.3568 178.771 24.1719C179.185 23.9844 179.647 23.8906 180.157 23.8906C180.673 23.8906 181.131 23.9831 181.532 24.168C181.933 24.3503 182.251 24.6003 182.485 24.918C182.722 25.2357 182.847 25.5964 182.86 26H181.923ZM191.463 28C191.463 28.8437 191.31 29.5729 191.005 30.1875C190.701 30.8021 190.283 31.276 189.752 31.6094C189.22 31.9427 188.614 32.1094 187.931 32.1094C187.249 32.1094 186.642 31.9427 186.111 31.6094C185.58 31.276 185.162 30.8021 184.857 30.1875C184.552 29.5729 184.4 28.8437 184.4 28C184.4 27.1562 184.552 26.4271 184.857 25.8125C185.162 25.1979 185.58 24.724 186.111 24.3906C186.642 24.0573 187.249 23.8906 187.931 23.8906C188.614 23.8906 189.22 24.0573 189.752 24.3906C190.283 24.724 190.701 25.1979 191.005 25.8125C191.31 26.4271 191.463 27.1562 191.463 28ZM190.525 28C190.525 27.3073 190.409 26.7227 190.177 26.2461C189.948 25.7695 189.637 25.4089 189.244 25.1641C188.853 24.9193 188.416 24.7969 187.931 24.7969C187.447 24.7969 187.008 24.9193 186.615 25.1641C186.224 25.4089 185.913 25.7695 185.681 26.2461C185.452 26.7227 185.338 27.3073 185.338 28C185.338 28.6927 185.452 29.2773 185.681 29.7539C185.913 30.2305 186.224 30.5911 186.615 30.8359C187.008 31.0807 187.447 31.2031 187.931 31.2031C188.416 31.2031 188.853 31.0807 189.244 30.8359C189.637 30.5911 189.948 30.2305 190.177 29.7539C190.409 29.2773 190.525 28.6927 190.525 28ZM198.491 24H199.46V29.2969C199.46 29.8437 199.331 30.332 199.073 30.7617C198.818 31.1888 198.458 31.526 197.991 31.7734C197.525 32.0182 196.978 32.1406 196.351 32.1406C195.723 32.1406 195.176 32.0182 194.71 31.7734C194.244 31.526 193.882 31.1888 193.624 30.7617C193.369 30.332 193.241 29.8437 193.241 29.2969V24H194.21V29.2188C194.21 29.6094 194.296 29.957 194.468 30.2617C194.64 30.5638 194.885 30.8021 195.202 30.9766C195.523 31.1484 195.905 31.2344 196.351 31.2344C196.796 31.2344 197.179 31.1484 197.499 30.9766C197.82 30.8021 198.064 30.5638 198.234 30.2617C198.405 29.957 198.491 29.6094 198.491 29.2188V24ZM201.545 32V24H204.248C204.873 24 205.386 24.1068 205.787 24.3203C206.188 24.5312 206.485 24.8216 206.678 25.1914C206.87 25.5612 206.967 25.9818 206.967 26.4531C206.967 26.9245 206.87 27.3424 206.678 27.707C206.485 28.0716 206.189 28.3581 205.791 28.5664C205.392 28.7721 204.883 28.875 204.263 28.875H202.076V28H204.232C204.659 28 205.003 27.9375 205.263 27.8125C205.526 27.6875 205.717 27.5104 205.834 27.2812C205.954 27.0495 206.013 26.7734 206.013 26.4531C206.013 26.1328 205.954 25.8529 205.834 25.6133C205.714 25.3737 205.523 25.1888 205.26 25.0586C204.997 24.9258 204.649 24.8594 204.217 24.8594H202.513V32H201.545ZM205.31 28.4062L207.279 32H206.154L204.217 28.4062H205.31ZM215.168 26.5H214.2C214.142 26.2214 214.042 25.9766 213.899 25.7656C213.758 25.5547 213.586 25.3776 213.383 25.2344C213.183 25.0885 212.96 24.9792 212.715 24.9062C212.47 24.8333 212.215 24.7969 211.95 24.7969C211.465 24.7969 211.026 24.9193 210.633 25.1641C210.243 25.4089 209.931 25.7695 209.7 26.2461C209.47 26.7227 209.356 27.3073 209.356 28C209.356 28.6927 209.47 29.2773 209.7 29.7539C209.931 30.2305 210.243 30.5911 210.633 30.8359C211.026 31.0807 211.465 31.2031 211.95 31.2031C212.215 31.2031 212.47 31.1667 212.715 31.0937C212.96 31.0208 213.183 30.9128 213.383 30.7695C213.586 30.6237 213.758 30.4453 213.899 30.2344C214.042 30.0208 214.142 29.776 214.2 29.5H215.168C215.095 29.9089 214.963 30.2747 214.77 30.5977C214.577 30.9206 214.338 31.1953 214.051 31.4219C213.765 31.6458 213.443 31.8164 213.086 31.9336C212.732 32.0508 212.353 32.1094 211.95 32.1094C211.267 32.1094 210.661 31.9427 210.129 31.6094C209.598 31.276 209.18 30.8021 208.875 30.1875C208.571 29.5729 208.418 28.8437 208.418 28C208.418 27.1562 208.571 26.4271 208.875 25.8125C209.18 25.1979 209.598 24.724 210.129 24.3906C210.661 24.0573 211.267 23.8906 211.95 23.8906C212.353 23.8906 212.732 23.9492 213.086 24.0664C213.443 24.1836 213.765 24.3555 214.051 24.582C214.338 24.806 214.577 25.0794 214.77 25.4023C214.963 25.7227 215.095 26.0885 215.168 26.5ZM216.884 32V24H221.712V24.8594H217.853V27.5625H221.462V28.4219H217.853V31.1406H221.774V32H216.884ZM227.983 26C227.936 25.6042 227.746 25.2969 227.413 25.0781C227.079 24.8594 226.671 24.75 226.186 24.75C225.832 24.75 225.522 24.8073 225.256 24.9219C224.993 25.0365 224.788 25.194 224.639 25.3945C224.493 25.5951 224.421 25.8229 224.421 26.0781C224.421 26.2917 224.471 26.4753 224.573 26.6289C224.677 26.7799 224.81 26.9062 224.971 27.0078C225.133 27.1068 225.302 27.1888 225.479 27.2539C225.656 27.3164 225.819 27.3672 225.967 27.4062L226.78 27.625C226.988 27.6797 227.22 27.7552 227.475 27.8516C227.733 27.9479 227.979 28.0794 228.213 28.2461C228.45 28.4102 228.646 28.6211 228.799 28.8789C228.953 29.1367 229.03 29.4531 229.03 29.8281C229.03 30.2604 228.917 30.651 228.69 31C228.466 31.349 228.138 31.6263 227.706 31.832C227.276 32.0378 226.754 32.1406 226.139 32.1406C225.566 32.1406 225.07 32.0482 224.651 31.8633C224.234 31.6784 223.906 31.4206 223.667 31.0898C223.43 30.7591 223.296 30.375 223.264 29.9375H224.264C224.29 30.2396 224.392 30.4896 224.569 30.6875C224.749 30.8828 224.975 31.0286 225.249 31.125C225.525 31.2187 225.822 31.2656 226.139 31.2656C226.509 31.2656 226.841 31.2057 227.135 31.0859C227.43 30.9635 227.663 30.7943 227.835 30.5781C228.006 30.3594 228.092 30.1042 228.092 29.8125C228.092 29.5469 228.018 29.3307 227.87 29.1641C227.721 28.9974 227.526 28.862 227.284 28.7578C227.042 28.6536 226.78 28.5625 226.499 28.4844L225.514 28.2031C224.889 28.0234 224.394 27.7669 224.03 27.4336C223.665 27.1003 223.483 26.6641 223.483 26.125C223.483 25.6771 223.604 25.2865 223.846 24.9531C224.091 24.6172 224.419 24.3568 224.831 24.1719C225.245 23.9844 225.707 23.8906 226.217 23.8906C226.733 23.8906 227.191 23.9831 227.592 24.168C227.993 24.3503 228.311 24.6003 228.546 24.918C228.782 25.2357 228.907 25.5964 228.921 26H227.983Z" fill="#003366"/>
</svg>
