<svg width="284" height="57" viewBox="0 0 284 57" fill="none" xmlns="http://www.w3.org/2000/svg">
<path d="M19.5726 47.5C30.3515 47.5 39.0895 38.9934 39.0895 28.5C39.0895 18.0066 30.3515 9.5 19.5726 9.5C8.79369 9.5 0.0556641 18.0066 0.0556641 28.5C0.0556641 38.9934 8.79369 47.5 19.5726 47.5Z" fill="#056EAF"/>
<path d="M31.338 43.2117C26.5424 36.1002 19.8509 30.2917 11.9884 26.4374C8.53109 24.7545 4.85076 23.3974 1.00314 22.5288C0.724323 23.3974 0.44551 24.3202 0.333984 25.2431C11.375 28.2831 21.245 34.0917 29.0517 41.9088C29.5536 42.4517 30.1112 42.9402 30.6131 43.4831C30.7246 43.646 30.8919 43.7545 31.0034 43.8631C31.2265 43.7002 31.3938 43.5917 31.6168 43.4288C31.4495 43.4288 31.3938 43.3202 31.338 43.2117V43.2117Z" fill="#E98782"/>
<path d="M30.0003 44.5686C23.5318 37.4029 11.5986 30.3458 0.0557626 27.2515C0.0557626 27.6315 0 28.0658 0 28.5C0 28.88 0 29.2058 0.0557626 29.5858C11.041 32.5172 20.9668 37.8372 29.2754 45.0029C29.4984 44.8943 29.7772 44.7315 30.0003 44.5686V44.5686Z" fill="#8AA4D4"/>
<path d="M38.5882 24.2114L26.2089 24.1028L22.5286 12.5942L18.5694 23.9942L11.8779 23.94C11.8779 23.94 18.5137 27.36 23.3093 31.7571C28.551 36.5885 31.9525 42.3971 32.064 42.56L28.4394 31.2142L38.5882 24.2114Z" fill="#FFC72C"/>
<path d="M64.6477 23.4205C64.5568 22.5038 64.1667 21.7917 63.4773 21.2841C62.7879 20.7765 61.8523 20.5227 60.6705 20.5227C59.8674 20.5227 59.1894 20.6364 58.6364 20.8636C58.0833 21.0833 57.6591 21.3902 57.3636 21.7841C57.0758 22.178 56.9318 22.625 56.9318 23.125C56.9167 23.5417 57.0038 23.9053 57.1932 24.2159C57.3902 24.5265 57.6591 24.7955 58 25.0227C58.3409 25.2424 58.7348 25.4356 59.1818 25.6023C59.6288 25.7614 60.1061 25.8977 60.6136 26.0114L62.7045 26.5114C63.7197 26.7386 64.6515 27.0417 65.5 27.4205C66.3485 27.7992 67.0833 28.2652 67.7045 28.8182C68.3258 29.3712 68.8068 30.0227 69.1477 30.7727C69.4962 31.5227 69.6742 32.3826 69.6818 33.3523C69.6742 34.7765 69.3106 36.0114 68.5909 37.0568C67.8788 38.0947 66.8485 38.9015 65.5 39.4773C64.1591 40.0455 62.5417 40.3295 60.6477 40.3295C58.7689 40.3295 57.1326 40.0417 55.7386 39.4659C54.3523 38.8902 53.2689 38.0379 52.4886 36.9091C51.7159 35.7727 51.3106 34.3674 51.2727 32.6932H56.0341C56.0871 33.4735 56.3106 34.125 56.7045 34.6477C57.1061 35.1629 57.6402 35.553 58.3068 35.8182C58.9811 36.0758 59.7424 36.2045 60.5909 36.2045C61.4242 36.2045 62.1477 36.0833 62.7614 35.8409C63.3826 35.5985 63.8636 35.2614 64.2045 34.8295C64.5455 34.3977 64.7159 33.9015 64.7159 33.3409C64.7159 32.8182 64.5606 32.3788 64.25 32.0227C63.947 31.6667 63.5 31.3636 62.9091 31.1136C62.3258 30.8636 61.6098 30.6364 60.7614 30.4318L58.2273 29.7955C56.2652 29.3182 54.7159 28.572 53.5795 27.5568C52.4432 26.5417 51.8788 25.1742 51.8864 23.4545C51.8788 22.0455 52.2538 20.8144 53.0114 19.7614C53.7765 18.7083 54.8258 17.8864 56.1591 17.2955C57.4924 16.7045 59.0076 16.4091 60.7045 16.4091C62.4318 16.4091 63.9394 16.7045 65.2273 17.2955C66.5227 17.8864 67.5303 18.7083 68.25 19.7614C68.9697 20.8144 69.3409 22.0341 69.3636 23.4205H64.6477ZM77.9119 16.7273V40H72.9915V16.7273H77.9119ZM81.0739 20.7841V16.7273H100.188V20.7841H93.0625V40H88.1989V20.7841H81.0739ZM103.335 40V16.7273H119.017V20.7841H108.256V26.3295H118.21V30.3864H108.256V35.9432H119.062V40H103.335Z" fill="white"/>
<rect x="134.5" y="9.5" width="37" height="0.999999" transform="rotate(90 134.5 9.5)" fill="white"/>
<rect x="134.5" y="9.5" width="37" height="0.999999" transform="rotate(90 134.5 9.5)" stroke="#FFC72C" stroke-width="0.999999"/>
<path d="M146.531 18.8594V18H152.531V18.8594H150.016V26H149.047V18.8594H146.531ZM154.176 26V18H155.145V21.5625H159.411V18H160.379V26H159.411V22.4219H155.145V26H154.176ZM162.469 26V18H167.297V18.8594H163.438V21.5625H167.047V22.4219H163.438V25.1406H167.36V26H162.469ZM172.437 26V18H173.406V21.5625H177.671V18H178.64V26H177.671V22.4219H173.406V26H172.437ZM185.979 18H186.948V23.2969C186.948 23.8437 186.819 24.332 186.562 24.7617C186.306 25.1888 185.946 25.526 185.479 25.7734C185.013 26.0182 184.466 26.1406 183.839 26.1406C183.211 26.1406 182.664 26.0182 182.198 25.7734C181.732 25.526 181.37 25.1888 181.112 24.7617C180.857 24.332 180.729 23.8437 180.729 23.2969V18H181.698V23.2188C181.698 23.6094 181.784 23.957 181.956 24.2617C182.128 24.5638 182.373 24.8021 182.69 24.9766C183.011 25.1484 183.394 25.2344 183.839 25.2344C184.284 25.2344 184.667 25.1484 184.987 24.9766C185.308 24.8021 185.552 24.5638 185.722 24.2617C185.894 23.957 185.979 23.6094 185.979 23.2188V18ZM189.033 26V18H191.83C192.387 18 192.847 18.0964 193.209 18.2891C193.571 18.4792 193.84 18.7357 194.017 19.0586C194.194 19.3789 194.283 19.7344 194.283 20.125C194.283 20.4687 194.222 20.7526 194.099 20.9766C193.979 21.2005 193.821 21.3776 193.623 21.5078C193.427 21.638 193.215 21.7344 192.986 21.7969V21.875C193.231 21.8906 193.477 21.9766 193.724 22.1328C193.972 22.2891 194.179 22.513 194.345 22.8047C194.512 23.0964 194.595 23.4531 194.595 23.875C194.595 24.276 194.504 24.6367 194.322 24.957C194.14 25.2773 193.852 25.5312 193.459 25.7187C193.065 25.9062 192.554 26 191.923 26H189.033ZM190.002 25.1406H191.923C192.556 25.1406 193.005 25.0182 193.271 24.7734C193.539 24.526 193.673 24.2266 193.673 23.875C193.673 23.6042 193.604 23.3542 193.466 23.125C193.328 22.8932 193.132 22.7083 192.877 22.5703C192.621 22.4297 192.319 22.3594 191.97 22.3594H190.002V25.1406ZM190.002 21.5156H191.798C192.09 21.5156 192.353 21.4583 192.588 21.3437C192.824 21.2292 193.012 21.0677 193.15 20.8594C193.291 20.651 193.361 20.4062 193.361 20.125C193.361 19.7734 193.239 19.4753 192.994 19.2305C192.749 18.9831 192.361 18.8594 191.83 18.8594H190.002V21.5156ZM199.581 26V18H204.378V18.8594H200.55V21.5625H204.018V22.4219H200.55V26H199.581ZM212.937 22C212.937 22.8437 212.785 23.5729 212.48 24.1875C212.175 24.8021 211.757 25.276 211.226 25.6094C210.695 25.9427 210.088 26.1094 209.406 26.1094C208.723 26.1094 208.117 25.9427 207.585 25.6094C207.054 25.276 206.636 24.8021 206.331 24.1875C206.027 23.5729 205.874 22.8437 205.874 22C205.874 21.1562 206.027 20.4271 206.331 19.8125C206.636 19.1979 207.054 18.724 207.585 18.3906C208.117 18.0573 208.723 17.8906 209.406 17.8906C210.088 17.8906 210.695 18.0573 211.226 18.3906C211.757 18.724 212.175 19.1979 212.48 19.8125C212.785 20.4271 212.937 21.1562 212.937 22ZM211.999 22C211.999 21.3073 211.884 20.7227 211.652 20.2461C211.423 19.7695 211.111 19.4089 210.718 19.1641C210.328 18.9193 209.89 18.7969 209.406 18.7969C208.921 18.7969 208.482 18.9193 208.089 19.1641C207.699 19.4089 207.387 19.7695 207.156 20.2461C206.926 20.7227 206.812 21.3073 206.812 22C206.812 22.6927 206.926 23.2773 207.156 23.7539C207.387 24.2305 207.699 24.5911 208.089 24.8359C208.482 25.0807 208.921 25.2031 209.406 25.2031C209.89 25.2031 210.328 25.0807 210.718 24.8359C211.111 24.5911 211.423 24.2305 211.652 23.7539C211.884 23.2773 211.999 22.6927 211.999 22ZM214.716 26V18H217.419C218.044 18 218.557 18.1068 218.958 18.3203C219.359 18.5312 219.656 18.8216 219.849 19.1914C220.041 19.5612 220.138 19.9818 220.138 20.4531C220.138 20.9245 220.041 21.3424 219.849 21.707C219.656 22.0716 219.36 22.3581 218.962 22.5664C218.563 22.7721 218.054 22.875 217.435 22.875H215.247V22H217.403C217.83 22 218.174 21.9375 218.435 21.8125C218.698 21.6875 218.888 21.5104 219.005 21.2812C219.125 21.0495 219.185 20.7734 219.185 20.4531C219.185 20.1328 219.125 19.8529 219.005 19.6133C218.885 19.3737 218.694 19.1888 218.431 19.0586C218.168 18.9258 217.82 18.8594 217.388 18.8594H215.685V26H214.716ZM218.481 22.4062L220.45 26H219.325L217.388 22.4062H218.481ZM224.708 18.8594V18H230.708V18.8594H228.193V26H227.224V18.8594H224.708ZM232.353 26V18H237.181V18.8594H233.322V21.5625H236.931V22.4219H233.322V25.1406H237.244V26H232.353ZM243.453 20C243.406 19.6042 243.216 19.2969 242.882 19.0781C242.549 18.8594 242.14 18.75 241.656 18.75C241.301 18.75 240.992 18.8073 240.726 18.9219C240.463 19.0365 240.257 19.194 240.109 19.3945C239.963 19.5951 239.89 19.8229 239.89 20.0781C239.89 20.2917 239.941 20.4753 240.042 20.6289C240.147 20.7799 240.279 20.9062 240.441 21.0078C240.602 21.1068 240.772 21.1888 240.949 21.2539C241.126 21.3164 241.288 21.3672 241.437 21.4062L242.249 21.625C242.458 21.6797 242.69 21.7552 242.945 21.8516C243.203 21.9479 243.449 22.0794 243.683 22.2461C243.92 22.4102 244.115 22.6211 244.269 22.8789C244.423 23.1367 244.499 23.4531 244.499 23.8281C244.499 24.2604 244.386 24.651 244.16 25C243.936 25.349 243.607 25.6263 243.175 25.832C242.746 26.0378 242.223 26.1406 241.609 26.1406C241.036 26.1406 240.54 26.0482 240.121 25.8633C239.704 25.6784 239.376 25.4206 239.136 25.0898C238.899 24.7591 238.765 24.375 238.734 23.9375H239.734C239.76 24.2396 239.861 24.4896 240.038 24.6875C240.218 24.8828 240.445 25.0286 240.718 25.125C240.994 25.2187 241.291 25.2656 241.609 25.2656C241.979 25.2656 242.311 25.2057 242.605 25.0859C242.899 24.9635 243.132 24.7943 243.304 24.5781C243.476 24.3594 243.562 24.1042 243.562 23.8125C243.562 23.5469 243.488 23.3307 243.339 23.1641C243.191 22.9974 242.996 22.862 242.753 22.7578C242.511 22.6536 242.249 22.5625 241.968 22.4844L240.984 22.2031C240.359 22.0234 239.864 21.7669 239.499 21.4336C239.135 21.1003 238.953 20.6641 238.953 20.125C238.953 19.6771 239.074 19.2865 239.316 18.9531C239.561 18.6172 239.889 18.3568 240.3 18.1719C240.714 17.9844 241.176 17.8906 241.687 17.8906C242.203 17.8906 242.661 17.9831 243.062 18.168C243.463 18.3503 243.781 18.6003 244.015 18.918C244.252 19.2357 244.377 19.5964 244.39 20H243.453ZM245.805 18.8594V18H251.805V18.8594H249.289V26H248.32V18.8594H245.805ZM254.419 18V26H253.45V18H254.419ZM262.855 18V26H261.917L257.558 19.7187H257.48V26H256.511V18H257.448L261.823 24.2969H261.902V18H262.855ZM270.412 20.5C270.326 20.237 270.213 20.0013 270.072 19.793C269.934 19.582 269.769 19.4023 269.576 19.2539C269.386 19.1055 269.17 18.9922 268.928 18.9141C268.685 18.8359 268.42 18.7969 268.131 18.7969C267.657 18.7969 267.226 18.9193 266.838 19.1641C266.45 19.4089 266.141 19.7695 265.912 20.2461C265.683 20.7227 265.568 21.3073 265.568 22C265.568 22.6927 265.684 23.2773 265.916 23.7539C266.148 24.2305 266.461 24.5911 266.857 24.8359C267.253 25.0807 267.698 25.2031 268.193 25.2031C268.651 25.2031 269.055 25.1055 269.404 24.9102C269.756 24.7122 270.029 24.4336 270.224 24.0742C270.422 23.7122 270.521 23.2865 270.521 22.7969L270.818 22.8594H268.412V22H271.459V22.8594C271.459 23.5182 271.318 24.0911 271.037 24.5781C270.758 25.0651 270.373 25.4427 269.881 25.7109C269.391 25.9766 268.829 26.1094 268.193 26.1094C267.485 26.1094 266.862 25.9427 266.326 25.6094C265.792 25.276 265.375 24.8021 265.076 24.1875C264.779 23.5729 264.631 22.8437 264.631 22C264.631 21.3672 264.715 20.7982 264.885 20.293C265.056 19.7852 265.299 19.3529 265.611 18.9961C265.924 18.6393 266.293 18.3659 266.721 18.1758C267.148 17.9857 267.618 17.8906 268.131 17.8906C268.553 17.8906 268.946 17.9544 269.31 18.082C269.678 18.207 270.004 18.3854 270.291 18.6172C270.58 18.8464 270.821 19.1211 271.013 19.4414C271.206 19.7591 271.339 20.112 271.412 20.5H270.412ZM152.219 31H153.188V36.2969C153.188 36.8437 153.059 37.332 152.801 37.7617C152.546 38.1888 152.185 38.526 151.719 38.7734C151.253 39.0182 150.706 39.1406 150.078 39.1406C149.451 39.1406 148.904 39.0182 148.438 38.7734C147.971 38.526 147.609 38.1888 147.352 37.7617C147.096 37.332 146.969 36.8437 146.969 36.2969V31H147.938V36.2188C147.938 36.6094 148.023 36.957 148.195 37.2617C148.367 37.5638 148.612 37.8021 148.93 37.9766C149.25 38.1484 149.633 38.2344 150.078 38.2344C150.523 38.2344 150.906 38.1484 151.227 37.9766C151.547 37.8021 151.792 37.5638 151.961 37.2617C152.133 36.957 152.219 36.6094 152.219 36.2188V31ZM154.835 31.8594V31H160.835V31.8594H158.319V39H157.35V31.8594H154.835ZM163.448 31V39H162.48V31H163.448ZM165.541 39V31H166.51V38.1406H170.228V39H165.541ZM172.847 31V39H171.878V31H172.847ZM174.502 31.8594V31H180.502V31.8594H177.986V39H177.018V31.8594H174.502ZM183.116 31V39H182.147V31H183.116ZM185.208 39V31H190.036V31.8594H186.177V34.5625H189.786V35.4219H186.177V38.1406H190.099V39H185.208ZM196.307 33C196.261 32.6042 196.07 32.2969 195.737 32.0781C195.404 31.8594 194.995 31.75 194.511 31.75C194.156 31.75 193.846 31.8073 193.581 31.9219C193.318 32.0365 193.112 32.194 192.964 32.3945C192.818 32.5951 192.745 32.8229 192.745 33.0781C192.745 33.2917 192.796 33.4753 192.897 33.6289C193.001 33.7799 193.134 33.9062 193.296 34.0078C193.457 34.1068 193.626 34.1888 193.804 34.2539C193.981 34.3164 194.143 34.3672 194.292 34.4062L195.104 34.625C195.313 34.6797 195.544 34.7552 195.8 34.8516C196.057 34.9479 196.304 35.0794 196.538 35.2461C196.775 35.4102 196.97 35.6211 197.124 35.8789C197.277 36.1367 197.354 36.4531 197.354 36.8281C197.354 37.2604 197.241 37.651 197.014 38C196.79 38.349 196.462 38.6263 196.03 38.832C195.6 39.0378 195.078 39.1406 194.464 39.1406C193.891 39.1406 193.395 39.0482 192.975 38.8633C192.559 38.6784 192.231 38.4206 191.991 38.0898C191.754 37.7591 191.62 37.375 191.589 36.9375H192.589C192.615 37.2396 192.716 37.4896 192.893 37.6875C193.073 37.8828 193.3 38.0286 193.573 38.125C193.849 38.2187 194.146 38.2656 194.464 38.2656C194.833 38.2656 195.165 38.2057 195.46 38.0859C195.754 37.9635 195.987 37.7943 196.159 37.5781C196.331 37.3594 196.417 37.1042 196.417 36.8125C196.417 36.5469 196.343 36.3307 196.194 36.1641C196.046 35.9974 195.85 35.862 195.608 35.7578C195.366 35.6536 195.104 35.5625 194.823 35.4844L193.839 35.2031C193.214 35.0234 192.719 34.7669 192.354 34.4336C191.99 34.1003 191.807 33.6641 191.807 33.125C191.807 32.6771 191.929 32.2865 192.171 31.9531C192.415 31.6172 192.744 31.3568 193.155 31.1719C193.569 30.9844 194.031 30.8906 194.542 30.8906C195.057 30.8906 195.516 30.9831 195.917 31.168C196.318 31.3503 196.636 31.6003 196.87 31.918C197.107 32.2357 197.232 32.5964 197.245 33H196.307ZM204.481 39.1094C203.955 39.1094 203.502 39.013 203.122 38.8203C202.742 38.6276 202.449 38.3633 202.243 38.0273C202.037 37.6914 201.935 37.3073 201.935 36.875C201.935 36.5417 202.005 36.2461 202.146 35.9883C202.289 35.7279 202.485 35.487 202.735 35.2656C202.988 35.0417 203.278 34.8177 203.606 34.5937L204.763 33.7344C204.989 33.5859 205.17 33.4271 205.306 33.2578C205.444 33.0885 205.513 32.8672 205.513 32.5937C205.513 32.3906 205.423 32.194 205.243 32.0039C205.066 31.8138 204.833 31.7188 204.544 31.7188C204.341 31.7188 204.161 31.7708 204.005 31.875C203.851 31.9766 203.73 32.1068 203.642 32.2656C203.556 32.4219 203.513 32.5833 203.513 32.75C203.513 32.9375 203.563 33.1276 203.665 33.3203C203.769 33.5104 203.901 33.7057 204.06 33.9062C204.221 34.1042 204.388 34.3073 204.56 34.5156L208.231 39H207.122L204.091 35.3437C203.81 35.0052 203.554 34.6979 203.325 34.4219C203.096 34.1458 202.914 33.8737 202.778 33.6055C202.643 33.3372 202.575 33.0469 202.575 32.7344C202.575 32.375 202.655 32.0599 202.813 31.7891C202.975 31.5156 203.2 31.3034 203.489 31.1523C203.781 30.9987 204.122 30.9219 204.513 30.9219C204.914 30.9219 205.259 31 205.548 31.1562C205.837 31.3099 206.06 31.5143 206.216 31.7695C206.372 32.0221 206.45 32.2969 206.45 32.5937C206.45 32.9766 206.355 33.3086 206.165 33.5898C205.975 33.8711 205.716 34.1328 205.388 34.375L203.794 35.5625C203.435 35.8281 203.191 36.0859 203.063 36.3359C202.936 36.5859 202.872 36.7656 202.872 36.875C202.872 37.125 202.937 37.3581 203.067 37.5742C203.198 37.7904 203.381 37.9648 203.618 38.0977C203.855 38.2305 204.132 38.2969 204.45 38.2969C204.752 38.2969 205.047 38.2331 205.333 38.1055C205.619 37.9753 205.879 37.7878 206.11 37.543C206.345 37.2982 206.53 37.0039 206.665 36.6602C206.803 36.3164 206.872 35.9297 206.872 35.5H207.763C207.763 36.0312 207.701 36.4648 207.579 36.8008C207.457 37.1367 207.319 37.3997 207.165 37.5898C207.011 37.7799 206.888 37.9219 206.794 38.0156C206.763 38.0547 206.734 38.0937 206.708 38.1328C206.682 38.1719 206.653 38.2109 206.622 38.25C206.364 38.5391 206.039 38.7552 205.646 38.8984C205.252 39.0391 204.864 39.1094 204.481 39.1094ZM212.771 39V31H215.474C216.099 31 216.612 31.1068 217.013 31.3203C217.414 31.5312 217.711 31.8216 217.904 32.1914C218.096 32.5612 218.193 32.9818 218.193 33.4531C218.193 33.9245 218.096 34.3424 217.904 34.707C217.711 35.0716 217.415 35.3581 217.017 35.5664C216.618 35.7721 216.109 35.875 215.489 35.875H213.302V35H215.458C215.885 35 216.229 34.9375 216.489 34.8125C216.752 34.6875 216.943 34.5104 217.06 34.2812C217.18 34.0495 217.239 33.7734 217.239 33.4531C217.239 33.1328 217.18 32.8529 217.06 32.6133C216.94 32.3737 216.749 32.1888 216.486 32.0586C216.223 31.9258 215.875 31.8594 215.443 31.8594H213.739V39H212.771ZM216.536 35.4062L218.505 39H217.38L215.443 35.4062H216.536ZM219.957 39V31H224.785V31.8594H220.926V34.5625H224.535V35.4219H220.926V38.1406H224.847V39H219.957ZM231.056 33C231.009 32.6042 230.819 32.2969 230.486 32.0781C230.152 31.8594 229.744 31.75 229.259 31.75C228.905 31.75 228.595 31.8073 228.329 31.9219C228.066 32.0365 227.861 32.194 227.712 32.3945C227.566 32.5951 227.494 32.8229 227.494 33.0781C227.494 33.2917 227.544 33.4753 227.646 33.6289C227.75 33.7799 227.883 33.9062 228.044 34.0078C228.206 34.1068 228.375 34.1888 228.552 34.2539C228.729 34.3164 228.892 34.3672 229.04 34.4062L229.853 34.625C230.061 34.6797 230.293 34.7552 230.548 34.8516C230.806 34.9479 231.052 35.0794 231.287 35.2461C231.524 35.4102 231.719 35.6211 231.872 35.8789C232.026 36.1367 232.103 36.4531 232.103 36.8281C232.103 37.2604 231.99 37.651 231.763 38C231.539 38.349 231.211 38.6263 230.779 38.832C230.349 39.0378 229.827 39.1406 229.212 39.1406C228.639 39.1406 228.143 39.0482 227.724 38.8633C227.307 38.6784 226.979 38.4206 226.74 38.0898C226.503 37.7591 226.369 37.375 226.337 36.9375H227.337C227.363 37.2396 227.465 37.4896 227.642 37.6875C227.822 37.8828 228.048 38.0286 228.322 38.125C228.598 38.2187 228.895 38.2656 229.212 38.2656C229.582 38.2656 229.914 38.2057 230.208 38.0859C230.503 37.9635 230.736 37.7943 230.908 37.5781C231.079 37.3594 231.165 37.1042 231.165 36.8125C231.165 36.5469 231.091 36.3307 230.943 36.1641C230.794 35.9974 230.599 35.862 230.357 35.7578C230.115 35.6536 229.853 35.5625 229.572 35.4844L228.587 35.2031C227.962 35.0234 227.468 34.7669 227.103 34.4336C226.738 34.1003 226.556 33.6641 226.556 33.125C226.556 32.6771 226.677 32.2865 226.919 31.9531C227.164 31.6172 227.492 31.3568 227.904 31.1719C228.318 30.9844 228.78 30.8906 229.29 30.8906C229.806 30.8906 230.264 30.9831 230.665 31.168C231.066 31.3503 231.384 31.6003 231.619 31.918C231.856 32.2357 231.981 32.5964 231.994 33H231.056ZM240.596 35C240.596 35.8437 240.443 36.5729 240.139 37.1875C239.834 37.8021 239.416 38.276 238.885 38.6094C238.354 38.9427 237.747 39.1094 237.064 39.1094C236.382 39.1094 235.775 38.9427 235.244 38.6094C234.713 38.276 234.295 37.8021 233.99 37.1875C233.686 36.5729 233.533 35.8437 233.533 35C233.533 34.1562 233.686 33.4271 233.99 32.8125C234.295 32.1979 234.713 31.724 235.244 31.3906C235.775 31.0573 236.382 30.8906 237.064 30.8906C237.747 30.8906 238.354 31.0573 238.885 31.3906C239.416 31.724 239.834 32.1979 240.139 32.8125C240.443 33.4271 240.596 34.1562 240.596 35ZM239.658 35C239.658 34.3073 239.542 33.7227 239.311 33.2461C239.081 32.7695 238.77 32.4089 238.377 32.1641C237.986 31.9193 237.549 31.7969 237.064 31.7969C236.58 31.7969 236.141 31.9193 235.748 32.1641C235.357 32.4089 235.046 32.7695 234.814 33.2461C234.585 33.7227 234.471 34.3073 234.471 35C234.471 35.6927 234.585 36.2773 234.814 36.7539C235.046 37.2305 235.357 37.5911 235.748 37.8359C236.141 38.0807 236.58 38.2031 237.064 38.2031C237.549 38.2031 237.986 38.0807 238.377 37.8359C238.77 37.5911 239.081 37.2305 239.311 36.7539C239.542 36.2773 239.658 35.6927 239.658 35ZM247.625 31H248.593V36.2969C248.593 36.8437 248.464 37.332 248.207 37.7617C247.951 38.1888 247.591 38.526 247.125 38.7734C246.658 39.0182 246.112 39.1406 245.484 39.1406C244.856 39.1406 244.31 39.0182 243.843 38.7734C243.377 38.526 243.015 38.1888 242.757 37.7617C242.502 37.332 242.375 36.8437 242.375 36.2969V31H243.343V36.2188C243.343 36.6094 243.429 36.957 243.601 37.2617C243.773 37.5638 244.018 37.8021 244.336 37.9766C244.656 38.1484 245.039 38.2344 245.484 38.2344C245.929 38.2344 246.312 38.1484 246.632 37.9766C246.953 37.8021 247.198 37.5638 247.367 37.2617C247.539 36.957 247.625 36.6094 247.625 36.2188V31ZM250.678 39V31H253.381C254.006 31 254.519 31.1068 254.92 31.3203C255.321 31.5312 255.618 31.8216 255.811 32.1914C256.003 32.5612 256.1 32.9818 256.1 33.4531C256.1 33.9245 256.003 34.3424 255.811 34.707C255.618 35.0716 255.322 35.3581 254.924 35.5664C254.526 35.7721 254.016 35.875 253.397 35.875H251.209V35H253.365C253.793 35 254.136 34.9375 254.397 34.8125C254.66 34.6875 254.85 34.5104 254.967 34.2812C255.087 34.0495 255.147 33.7734 255.147 33.4531C255.147 33.1328 255.087 32.8529 254.967 32.6133C254.847 32.3737 254.656 32.1888 254.393 32.0586C254.13 31.9258 253.782 31.8594 253.35 31.8594H251.647V39H250.678ZM254.444 35.4062L256.412 39H255.287L253.35 35.4062H254.444ZM264.302 33.5H263.333C263.276 33.2214 263.175 32.9766 263.032 32.7656C262.891 32.5547 262.72 32.3776 262.516 32.2344C262.316 32.0885 262.093 31.9792 261.848 31.9062C261.604 31.8333 261.348 31.7969 261.083 31.7969C260.598 31.7969 260.16 31.9193 259.766 32.1641C259.376 32.4089 259.065 32.7695 258.833 33.2461C258.604 33.7227 258.489 34.3073 258.489 35C258.489 35.6927 258.604 36.2773 258.833 36.7539C259.065 37.2305 259.376 37.5911 259.766 37.8359C260.16 38.0807 260.598 38.2031 261.083 38.2031C261.348 38.2031 261.604 38.1667 261.848 38.0937C262.093 38.0208 262.316 37.9128 262.516 37.7695C262.72 37.6237 262.891 37.4453 263.032 37.2344C263.175 37.0208 263.276 36.776 263.333 36.5H264.302C264.229 36.9089 264.096 37.2747 263.903 37.5977C263.71 37.9206 263.471 38.1953 263.184 38.4219C262.898 38.6458 262.576 38.8164 262.22 38.9336C261.865 39.0508 261.486 39.1094 261.083 39.1094C260.401 39.1094 259.794 38.9427 259.262 38.6094C258.731 38.276 258.313 37.8021 258.009 37.1875C257.704 36.5729 257.552 35.8437 257.552 35C257.552 34.1562 257.704 33.4271 258.009 32.8125C258.313 32.1979 258.731 31.724 259.262 31.3906C259.794 31.0573 260.401 30.8906 261.083 30.8906C261.486 30.8906 261.865 30.9492 262.22 31.0664C262.576 31.1836 262.898 31.3555 263.184 31.582C263.471 31.806 263.71 32.0794 263.903 32.4023C264.096 32.7227 264.229 33.0885 264.302 33.5ZM266.017 39V31H270.845V31.8594H266.986V34.5625H270.595V35.4219H266.986V38.1406H270.908V39H266.017ZM277.116 33C277.069 32.6042 276.879 32.2969 276.546 32.0781C276.213 31.8594 275.804 31.75 275.319 31.75C274.965 31.75 274.655 31.8073 274.39 31.9219C274.127 32.0365 273.921 32.194 273.772 32.3945C273.627 32.5951 273.554 32.8229 273.554 33.0781C273.554 33.2917 273.604 33.4753 273.706 33.6289C273.81 33.7799 273.943 33.9062 274.104 34.0078C274.266 34.1068 274.435 34.1888 274.612 34.2539C274.789 34.3164 274.952 34.3672 275.101 34.4062L275.913 34.625C276.121 34.6797 276.353 34.7552 276.608 34.8516C276.866 34.9479 277.112 35.0794 277.347 35.2461C277.584 35.4102 277.779 35.6211 277.933 35.8789C278.086 36.1367 278.163 36.4531 278.163 36.8281C278.163 37.2604 278.05 37.651 277.823 38C277.599 38.349 277.271 38.6263 276.839 38.832C276.409 39.0378 275.887 39.1406 275.272 39.1406C274.7 39.1406 274.203 39.0482 273.784 38.8633C273.368 38.6784 273.039 38.4206 272.8 38.0898C272.563 37.7591 272.429 37.375 272.397 36.9375H273.397C273.424 37.2396 273.525 37.4896 273.702 37.6875C273.882 37.8828 274.108 38.0286 274.382 38.125C274.658 38.2187 274.955 38.2656 275.272 38.2656C275.642 38.2656 275.974 38.2057 276.269 38.0859C276.563 37.9635 276.796 37.7943 276.968 37.5781C277.14 37.3594 277.226 37.1042 277.226 36.8125C277.226 36.5469 277.151 36.3307 277.003 36.1641C276.854 35.9974 276.659 35.862 276.417 35.7578C276.175 35.6536 275.913 35.5625 275.632 35.4844L274.647 35.2031C274.022 35.0234 273.528 34.7669 273.163 34.4336C272.799 34.1003 272.616 33.6641 272.616 33.125C272.616 32.6771 272.737 32.2865 272.979 31.9531C273.224 31.6172 273.552 31.3568 273.964 31.1719C274.378 30.9844 274.84 30.8906 275.351 30.8906C275.866 30.8906 276.325 30.9831 276.726 31.168C277.127 31.3503 277.444 31.6003 277.679 31.918C277.916 32.2357 278.041 32.5964 278.054 33H277.116Z" fill="white"/>
</svg>
