<?xml version="1.0" encoding="UTF-8"?>
<svg id="Layer_2" data-name="Layer 2" xmlns="http://www.w3.org/2000/svg" viewBox="0 0 238.61 42">
  <defs>
    <style>
      .cls-1 {
        fill: #f5af00;
      }

      .cls-1, .cls-2 {
        stroke-width: 0px;
      }

      .cls-3 {
        fill: none;
        stroke: #ffc72c;
        stroke-width: .5px;
      }

      .cls-2 {
        fill: #fff;
      }
    </style>
  </defs>
  <g id="Layer_1-2" data-name="Layer 1">
    <path class="cls-2" d="M50.05,16.53c-.07-.74-.39-1.32-.95-1.74-.56-.41-1.32-.62-2.28-.62-.65,0-1.2.09-1.65.28-.45.18-.79.43-1.03.75-.23.32-.35.68-.35,1.09-.01.34.06.63.21.89.16.25.38.47.66.66.28.18.6.34.96.47.36.13.75.24,1.16.33l1.7.41c.82.18,1.58.43,2.27.74.69.31,1.29.69,1.79,1.14.5.45.9.98,1.17,1.59.28.61.43,1.31.43,2.1,0,1.16-.3,2.16-.89,3.01-.58.84-1.42,1.5-2.51,1.97-1.09.46-2.4.69-3.94.69s-2.86-.23-3.99-.7c-1.13-.47-2.01-1.16-2.64-2.08-.63-.92-.96-2.07-.99-3.43h3.87c.04.63.22,1.16.54,1.59.33.42.76.74,1.3.95.55.21,1.17.31,1.86.31s1.26-.1,1.76-.3c.5-.2.9-.47,1.17-.82.28-.35.42-.75.42-1.21,0-.42-.13-.78-.38-1.07-.25-.29-.61-.54-1.09-.74-.47-.2-1.06-.39-1.75-.55l-2.06-.52c-1.59-.39-2.85-.99-3.78-1.82-.92-.82-1.38-1.94-1.38-3.33,0-1.14.3-2.15.91-3,.62-.86,1.47-1.52,2.56-2,1.08-.48,2.31-.72,3.69-.72s2.63.24,3.67.72c1.05.48,1.87,1.15,2.46,2,.58.86.89,1.85.9,2.97h-3.83ZM60.83,11.09v18.91h-4V11.09h4ZM63.4,14.39v-3.3h15.53v3.3h-5.79v15.61h-3.95v-15.61h-5.79ZM81.48,30V11.09h12.74v3.3h-8.74v4.51h8.09v3.3h-8.09v4.51h8.78v3.3h-12.78Z"/>
    <rect class="cls-3" x="104.4" y=".25" width=".5" height="41.5"/>
    <path class="cls-2" d="M113.68,11.86v-.86h6v.86h-2.51v7.14h-.97v-7.14h-2.52ZM121.32,19v-8h.97v3.56h4.27v-3.56h.97v8h-.97v-3.58h-4.27v3.58h-.97ZM129.62,19v-8h4.83v.86h-3.86v2.7h3.61v.86h-3.61v2.72h3.92v.86h-4.89ZM139.59,19v-8h.97v3.56h4.26v-3.56h.97v8h-.97v-3.58h-4.26v3.58h-.97ZM153.13,11h.97v5.3c0,.55-.13,1.04-.39,1.46-.26.43-.62.76-1.08,1.01-.47.24-1.01.37-1.64.37s-1.18-.12-1.64-.37c-.47-.25-.83-.58-1.09-1.01-.26-.43-.38-.92-.38-1.46v-5.3h.97v5.22c0,.39.09.74.26,1.04.17.3.42.54.73.71.32.17.7.26,1.15.26s.83-.09,1.15-.26c.32-.17.57-.41.74-.71.17-.3.26-.65.26-1.04v-5.22ZM156.18,19v-8h2.8c.56,0,1.02.1,1.38.29.36.19.63.45.81.77.18.32.27.68.27,1.07,0,.34-.06.63-.18.85-.12.22-.28.4-.48.53-.2.13-.41.23-.64.29v.08c.25.02.49.1.74.26.25.16.46.38.62.67.17.29.25.65.25,1.07s-.09.76-.27,1.08c-.18.32-.47.57-.86.76-.39.19-.9.28-1.54.28h-2.89ZM157.15,18.14h1.92c.63,0,1.08-.12,1.35-.37.27-.25.4-.55.4-.9,0-.27-.07-.52-.21-.75-.14-.23-.33-.42-.59-.55-.26-.14-.56-.21-.91-.21h-1.97v2.78ZM157.15,14.52h1.8c.29,0,.55-.06.79-.17.24-.11.42-.28.56-.48.14-.21.21-.45.21-.73,0-.35-.12-.65-.37-.89-.25-.25-.63-.37-1.16-.37h-1.83v2.66ZM166.73,19v-8h4.8v.86h-3.83v2.7h3.47v.86h-3.47v3.58h-.97ZM180.09,15c0,.84-.15,1.57-.46,2.19-.3.61-.72,1.09-1.25,1.42-.53.33-1.14.5-1.82.5s-1.29-.17-1.82-.5c-.53-.33-.95-.81-1.25-1.42-.3-.61-.46-1.34-.46-2.19s.15-1.57.46-2.19c.31-.61.72-1.09,1.25-1.42.53-.33,1.14-.5,1.82-.5s1.29.17,1.82.5c.53.33.95.81,1.25,1.42.31.61.46,1.34.46,2.19ZM179.15,15c0-.69-.11-1.28-.35-1.75-.23-.48-.54-.84-.93-1.08-.39-.24-.83-.37-1.31-.37s-.92.12-1.32.37c-.39.24-.7.61-.93,1.08-.23.48-.34,1.06-.34,1.75s.11,1.28.34,1.75c.23.48.54.84.93,1.08.39.24.83.37,1.32.37s.92-.12,1.31-.37c.39-.24.71-.61.93-1.08.23-.48.35-1.06.35-1.75ZM181.86,19v-8h2.7c.62,0,1.14.11,1.54.32.4.21.7.5.89.87.19.37.29.79.29,1.26s-.1.89-.29,1.25c-.19.36-.49.65-.89.86-.4.21-.91.31-1.53.31h-2.19v-.88h2.16c.43,0,.77-.06,1.03-.19.26-.12.45-.3.57-.53.12-.23.18-.51.18-.83s-.06-.6-.18-.84c-.12-.24-.31-.42-.57-.55-.26-.13-.61-.2-1.04-.2h-1.7v7.14h-.97ZM185.63,15.41l1.97,3.59h-1.12l-1.94-3.59h1.09ZM191.86,11.86v-.86h6v.86h-2.51v7.14h-.97v-7.14h-2.52ZM199.5,19v-8h4.83v.86h-3.86v2.7h3.61v.86h-3.61v2.72h3.92v.86h-4.89ZM210.6,13c-.05-.4-.24-.7-.57-.92-.33-.22-.74-.33-1.23-.33-.36,0-.66.06-.93.17-.26.11-.47.27-.62.47-.15.2-.22.43-.22.68,0,.21.05.4.15.55.1.15.24.28.4.38.16.1.33.18.51.25.18.06.34.11.49.15l.81.22c.21.05.44.13.7.23.26.1.5.23.74.39.24.16.43.38.59.63.15.26.23.57.23.95,0,.43-.11.82-.34,1.17-.22.35-.55.63-.99.83-.43.21-.95.31-1.57.31-.57,0-1.07-.09-1.49-.28-.42-.18-.74-.44-.99-.77-.24-.33-.37-.71-.4-1.15h1c.03.3.13.55.3.75.18.2.41.34.68.44.28.09.57.14.89.14.37,0,.7-.06,1-.18.29-.12.53-.29.7-.51.17-.22.26-.47.26-.77,0-.27-.07-.48-.22-.65-.15-.17-.34-.3-.59-.41-.24-.1-.5-.2-.79-.27l-.98-.28c-.62-.18-1.12-.44-1.49-.77-.36-.33-.55-.77-.55-1.31,0-.45.12-.84.36-1.17.25-.34.57-.6.98-.78.41-.19.88-.28,1.39-.28s.97.09,1.38.28c.4.18.72.43.95.75.24.32.36.68.38,1.08h-.94ZM212.95,11.86v-.86h6v.86h-2.52v7.14h-.97v-7.14h-2.52ZM221.57,11v8h-.97v-8h.97ZM230,11v8h-.94l-4.36-6.28h-.08v6.28h-.97v-8h.94l4.38,6.3h.08v-6.3h.95ZM237.56,13.5c-.09-.26-.2-.5-.34-.71-.14-.21-.3-.39-.5-.54-.19-.15-.41-.26-.65-.34-.24-.08-.51-.12-.8-.12-.47,0-.9.12-1.29.37-.39.24-.7.61-.93,1.08-.23.48-.34,1.06-.34,1.75s.12,1.28.35,1.75c.23.48.54.84.94,1.08.4.24.84.37,1.34.37.46,0,.86-.1,1.21-.29.35-.2.62-.48.82-.84.2-.36.3-.79.3-1.28l.3.06h-2.41v-.86h3.05v.86c0,.66-.14,1.23-.42,1.72-.28.49-.66.86-1.16,1.13-.49.27-1.05.4-1.69.4-.71,0-1.33-.17-1.87-.5-.53-.33-.95-.81-1.25-1.42-.3-.61-.45-1.34-.45-2.19,0-.63.08-1.2.25-1.71.17-.51.41-.94.73-1.3.31-.36.68-.63,1.11-.82.43-.19.9-.29,1.41-.29.42,0,.82.06,1.18.19.37.12.69.3.98.54.29.23.53.5.72.82.19.32.33.67.4,1.06h-1ZM113.68,24.86v-.86h6v.86h-2.51v7.14h-.97v-7.14h-2.52ZM127.74,28c0,.84-.15,1.57-.46,2.19-.3.61-.72,1.09-1.25,1.42-.53.33-1.14.5-1.82.5s-1.29-.17-1.82-.5c-.53-.33-.95-.81-1.25-1.42-.31-.61-.46-1.34-.46-2.19s.15-1.57.46-2.19c.3-.61.72-1.09,1.25-1.42.53-.33,1.14-.5,1.82-.5s1.29.17,1.82.5c.53.33.95.81,1.25,1.42.3.61.46,1.34.46,2.19ZM126.8,28c0-.69-.12-1.28-.35-1.75-.23-.48-.54-.84-.93-1.08-.39-.24-.83-.37-1.31-.37s-.92.12-1.32.37c-.39.24-.7.61-.93,1.08-.23.48-.34,1.06-.34,1.75s.11,1.28.34,1.75c.23.48.54.84.93,1.08.39.24.83.37,1.32.37s.92-.12,1.31-.37c.39-.24.7-.61.93-1.08.23-.48.35-1.06.35-1.75ZM136.27,28c0,.84-.15,1.57-.46,2.19-.3.61-.72,1.09-1.25,1.42-.53.33-1.14.5-1.82.5s-1.29-.17-1.82-.5c-.53-.33-.95-.81-1.25-1.42-.3-.61-.46-1.34-.46-2.19s.15-1.57.46-2.19c.3-.61.72-1.09,1.25-1.42.53-.33,1.14-.5,1.82-.5s1.29.17,1.82.5c.53.33.95.81,1.25,1.42.31.61.46,1.34.46,2.19ZM135.33,28c0-.69-.12-1.28-.35-1.75-.23-.48-.54-.84-.93-1.08-.39-.24-.83-.37-1.31-.37s-.92.12-1.32.37c-.39.24-.7.61-.93,1.08-.23.48-.34,1.06-.34,1.75s.12,1.28.34,1.75c.23.48.54.84.93,1.08.39.24.83.37,1.32.37s.92-.12,1.31-.37c.39-.24.7-.61.93-1.08.23-.48.35-1.06.35-1.75ZM138.05,32v-8h.97v7.14h3.72v.86h-4.69ZM148.76,26c-.05-.4-.24-.7-.57-.92-.33-.22-.74-.33-1.23-.33-.35,0-.66.06-.93.17-.26.11-.47.27-.62.47-.15.2-.22.43-.22.68,0,.21.05.4.15.55.1.15.24.28.4.38.16.1.33.18.51.25.18.06.34.11.49.15l.81.22c.21.05.44.13.7.23.26.1.5.23.74.39.24.16.43.38.59.63.15.26.23.57.23.95,0,.43-.11.82-.34,1.17-.22.35-.55.63-.99.83-.43.21-.95.31-1.57.31-.57,0-1.07-.09-1.49-.28-.42-.18-.74-.44-.99-.77-.24-.33-.37-.71-.4-1.15h1c.03.3.13.55.3.75.18.2.41.34.68.44.28.09.57.14.89.14.37,0,.7-.06,1-.18.29-.12.53-.29.7-.51.17-.22.26-.47.26-.77,0-.27-.07-.48-.22-.65-.15-.17-.34-.3-.59-.41-.24-.1-.5-.2-.79-.27l-.98-.28c-.62-.18-1.12-.44-1.48-.77-.36-.33-.55-.77-.55-1.31,0-.45.12-.84.36-1.17.24-.34.57-.6.98-.78.41-.19.88-.28,1.39-.28s.97.09,1.38.28c.4.18.72.43.95.75.24.32.36.68.38,1.08h-.94ZM156.94,32.11c-.53,0-.98-.1-1.36-.29-.38-.19-.67-.46-.88-.79-.21-.34-.31-.72-.31-1.15,0-.33.07-.63.21-.89.14-.26.34-.5.59-.72.25-.22.54-.45.87-.67l1.16-.86c.23-.15.41-.31.54-.48.14-.17.21-.39.21-.66,0-.2-.09-.4-.27-.59-.18-.19-.41-.29-.7-.29-.2,0-.38.05-.54.16-.15.1-.28.23-.36.39-.09.16-.13.32-.13.48,0,.19.05.38.15.57.1.19.24.39.4.59.16.2.33.4.5.61l3.67,4.48h-1.11l-3.03-3.66c-.28-.34-.54-.65-.77-.92-.23-.28-.41-.55-.55-.82-.14-.27-.2-.56-.2-.87,0-.36.08-.67.24-.95.16-.27.39-.49.68-.64.29-.15.63-.23,1.02-.23s.75.08,1.04.23c.29.15.51.36.67.61.16.25.23.53.23.82,0,.38-.1.71-.29,1-.19.28-.45.54-.78.79l-1.59,1.19c-.36.27-.6.52-.73.77-.13.25-.19.43-.19.54,0,.25.07.48.2.7.13.22.31.39.55.52.24.13.51.2.83.2s.6-.06.88-.19c.29-.13.55-.32.78-.56.23-.24.42-.54.55-.88.14-.34.21-.73.21-1.16h.89c0,.53-.06.96-.18,1.3-.12.34-.26.6-.41.79-.15.19-.28.33-.37.43-.03.04-.06.08-.09.12-.03.04-.05.08-.09.12-.26.29-.58.51-.98.65-.39.14-.78.21-1.16.21ZM165.23,32v-8h2.7c.62,0,1.14.11,1.54.32.4.21.7.5.89.87.19.37.29.79.29,1.26s-.1.89-.29,1.25c-.19.36-.49.65-.89.86-.4.21-.91.31-1.53.31h-2.19v-.88h2.16c.43,0,.77-.06,1.03-.19.26-.12.45-.3.57-.53.12-.23.18-.51.18-.83s-.06-.6-.18-.84-.31-.42-.57-.55c-.26-.13-.61-.2-1.04-.2h-1.7v7.14h-.97ZM168.99,28.41l1.97,3.59h-1.12l-1.94-3.59h1.09ZM172.41,32v-8h4.83v.86h-3.86v2.7h3.61v.86h-3.61v2.72h3.92v.86h-4.89ZM183.51,26c-.05-.4-.24-.7-.57-.92-.33-.22-.74-.33-1.23-.33-.35,0-.66.06-.93.17-.26.11-.47.27-.62.47-.15.2-.22.43-.22.68,0,.21.05.4.15.55.1.15.24.28.4.38.16.1.33.18.51.25.18.06.34.11.49.15l.81.22c.21.05.44.13.7.23.26.1.5.23.74.39.24.16.43.38.59.63.15.26.23.57.23.95,0,.43-.11.82-.34,1.17-.22.35-.55.63-.98.83-.43.21-.95.31-1.57.31-.57,0-1.07-.09-1.49-.28-.42-.18-.74-.44-.98-.77-.24-.33-.37-.71-.4-1.15h1c.03.3.13.55.3.75.18.2.41.34.68.44.28.09.57.14.89.14.37,0,.7-.06,1-.18.29-.12.53-.29.7-.51.17-.22.26-.47.26-.77,0-.27-.07-.48-.22-.65-.15-.17-.34-.3-.59-.41-.24-.1-.5-.2-.78-.27l-.98-.28c-.62-.18-1.12-.44-1.49-.77-.36-.33-.55-.77-.55-1.31,0-.45.12-.84.36-1.17.24-.34.57-.6.98-.78.41-.19.88-.28,1.39-.28s.97.09,1.38.28c.4.18.72.43.95.75.24.32.36.68.38,1.08h-.94ZM193.05,28c0,.84-.15,1.57-.46,2.19-.31.61-.72,1.09-1.25,1.42-.53.33-1.14.5-1.82.5s-1.29-.17-1.82-.5c-.53-.33-.95-.81-1.25-1.42-.3-.61-.46-1.34-.46-2.19s.15-1.57.46-2.19c.3-.61.72-1.09,1.25-1.42.53-.33,1.14-.5,1.82-.5s1.29.17,1.82.5c.53.33.95.81,1.25,1.42.3.61.46,1.34.46,2.19ZM192.11,28c0-.69-.12-1.28-.35-1.75-.23-.48-.54-.84-.93-1.08-.39-.24-.83-.37-1.31-.37s-.92.12-1.32.37c-.39.24-.7.61-.93,1.08-.23.48-.34,1.06-.34,1.75s.12,1.28.34,1.75c.23.48.54.84.93,1.08.39.24.83.37,1.32.37s.92-.12,1.31-.37c.39-.24.71-.61.93-1.08.23-.48.35-1.06.35-1.75ZM200.08,24h.97v5.3c0,.55-.13,1.04-.39,1.46-.26.43-.62.76-1.08,1.01-.47.24-1.01.37-1.64.37s-1.17-.12-1.64-.37c-.47-.25-.83-.58-1.09-1.01-.26-.43-.38-.92-.38-1.46v-5.3h.97v5.22c0,.39.09.74.26,1.04.17.3.42.54.74.71.32.17.7.26,1.15.26s.83-.09,1.15-.26c.32-.17.57-.41.73-.71.17-.3.26-.65.26-1.04v-5.22ZM203.13,32v-8h2.7c.62,0,1.14.11,1.54.32.4.21.7.5.89.87.19.37.29.79.29,1.26s-.1.89-.29,1.25c-.19.36-.49.65-.89.86-.4.21-.91.31-1.53.31h-2.19v-.88h2.16c.43,0,.77-.06,1.03-.19.26-.12.45-.3.57-.53.12-.23.18-.51.18-.83s-.06-.6-.18-.84c-.12-.24-.31-.42-.57-.55-.26-.13-.61-.2-1.04-.2h-1.7v7.14h-.97ZM206.9,28.41l1.97,3.59h-1.12l-1.94-3.59h1.09ZM216.76,26.5h-.97c-.06-.28-.16-.52-.3-.73-.14-.21-.31-.39-.51-.53-.2-.15-.42-.26-.67-.33-.24-.07-.5-.11-.77-.11-.48,0-.92.12-1.32.37-.39.24-.7.61-.93,1.08-.23.48-.34,1.06-.34,1.75s.12,1.28.34,1.75c.23.48.54.84.93,1.08.39.24.83.37,1.32.37.27,0,.52-.04.77-.11.24-.07.47-.18.67-.32.2-.15.38-.32.51-.54.14-.21.24-.46.3-.73h.97c-.07.41-.21.77-.4,1.1-.19.32-.43.6-.72.82-.29.22-.61.39-.96.51-.35.12-.73.18-1.14.18-.68,0-1.29-.17-1.82-.5-.53-.33-.95-.81-1.25-1.42-.31-.61-.46-1.34-.46-2.19s.15-1.57.46-2.19c.3-.61.72-1.09,1.25-1.42.53-.33,1.14-.5,1.82-.5.4,0,.78.06,1.14.18.36.12.68.29.96.52.29.22.53.5.72.82.19.32.33.69.4,1.1ZM218.47,32v-8h4.83v.86h-3.86v2.7h3.61v.86h-3.61v2.72h3.92v.86h-4.89ZM229.57,26c-.05-.4-.24-.7-.57-.92-.33-.22-.74-.33-1.23-.33-.36,0-.66.06-.93.17-.26.11-.47.27-.62.47-.15.2-.22.43-.22.68,0,.21.05.4.15.55.1.15.24.28.4.38.16.1.33.18.51.25.18.06.34.11.49.15l.81.22c.21.05.44.13.7.23.26.1.5.23.74.39.24.16.43.38.59.63.15.26.23.57.23.95,0,.43-.11.82-.34,1.17-.22.35-.55.63-.98.83-.43.21-.95.31-1.57.31-.57,0-1.07-.09-1.49-.28-.42-.18-.74-.44-.98-.77-.24-.33-.37-.71-.4-1.15h1c.03.3.13.55.3.75.18.2.41.34.68.44.28.09.57.14.89.14.37,0,.7-.06,1-.18.29-.12.53-.29.7-.51.17-.22.26-.47.26-.77,0-.27-.07-.48-.22-.65-.15-.17-.34-.3-.59-.41-.24-.1-.5-.2-.79-.27l-.98-.28c-.62-.18-1.12-.44-1.49-.77-.36-.33-.55-.77-.55-1.31,0-.45.12-.84.36-1.17.25-.34.57-.6.98-.78.41-.19.88-.28,1.39-.28s.97.09,1.38.28c.4.18.72.43.95.75.24.32.36.68.38,1.08h-.94Z"/>
    <g id="Logomark_Positive">
      <g id="Logomark_Positive-2">
        <path class="cls-2" d="M2.4,15.11c.5-.92,1.08-1.81,1.72-2.64.51-.67,1.04-1.28,1.58-1.82,2.31-2.31,5.11-3.95,8.31-4.89,2.43-.71,4.48-.81,5.48-.81.07,0,.14,0,.19,0h.04c.8,0,1.68.1,2.55.28.9.19,1.77.48,2.59.85-.32.71-.92,1.27-1.66,1.52-.3-.11-.61-.2-.92-.28-1.15-.3-2.1-.34-2.56-.34h-.04s-.13,0-.16,0c-.94,0-2.86.1-5.13.79-2.79.84-5.22,2.29-7.23,4.29l-.02.02s-.08.08-.12.12c-.29.3-.58.63-.87.98l-.02.02h.03c.67.23,1.35.43,2.02.62.64.17,1.26.32,1.89.45l-5.11.55-2.54.28h0Z"/>
        <path class="cls-2" d="M12.39,37.05s-.05,0-.07,0h-.01s-.02,0-.04,0h-.04s-.02,0-.03,0c0,0-.01,0-.02,0-.02,0-.03,0-.05,0-.01,0-.02,0-.03,0h-.04s0,0-.01,0c-.02,0-.03,0-.04,0h-.01s-.06,0-.09,0h-.05s-.02,0-.02,0h-.01s-.05,0-.07,0h0s-.08,0-.11,0c-.01,0-.03,0-.04,0h-.05s-.02,0-.03,0c0,0-.01,0-.02,0-.02,0-.04,0-.06,0-.01,0-.03,0-.04,0h-.06s-.03,0-.05,0h-.04s-.05,0-.07-.01c-.03,0-.07,0-.11-.01h-.01s-.1-.01-.1-.01h-.07s-.08-.02-.08-.02c-.03,0-.05,0-.08-.01h0s-.02,0-.04,0c-.01,0-.03,0-.04,0,0,0-.01,0-.02,0h-.06c-.06-.02-.11-.03-.17-.04h0s0,0,0,0h-.02s-.01,0-.02,0h-.08s0-.02,0-.02h-.04s-.06-.02-.08-.02h0s-.03,0-.04,0h0s-.02,0-.03,0h-.02s-.05-.01-.08-.02l-.1-.02-.08-.02s-.01,0-.02,0h-.03s-.07-.02-.11-.03h0s0,0,0,0h0s-.13-.03-.13-.03c0,0-.02,0-.02,0-.03,0-.06-.02-.1-.02,0,0,0,0-.01,0l-.09-.02s-.07-.02-.1-.03l-.09-.02s-.12-.03-.12-.03c0,0-.08-.02-.08-.02-.01,0-.07-.02-.07-.02,0,0-.07-.02-.09-.03,0,0,0,0,0,0-.02,0-.04-.01-.06-.02h0s-.08-.03-.08-.03c-.01,0-.02,0-.04-.01,0,0,0,0-.01,0-.02,0-.1-.03-.1-.03-.06-.02-.12-.04-.18-.06-.04-.01-.07-.03-.11-.04-.04-.01-.07-.03-.11-.04-.03-.01-.06-.02-.09-.03,0,0-.01,0-.01,0,0,0,0,0,0,0,0,0-.05-.02-.06-.02-.02,0-.04-.02-.06-.02-.06-.03-.13-.05-.2-.08h-.03s-.06-.04-.08-.05c-.02,0-.04-.02-.06-.03l-.16-.07s-.01,0-.02,0c-.04-.02-.07-.03-.11-.05-.04-.02-.11-.05-.11-.05,0,0-.08-.04-.1-.05l-.09-.04s-.03-.01-.04-.02c-.04-.02-.07-.04-.11-.06,0,0-.01,0-.02,0l-.08-.04s-.02,0-.02,0c-.05-.03-.1-.05-.15-.08l-.08-.04s-.08-.04-.11-.06c-.03-.02-.06-.03-.09-.05l-.03-.02s-.06-.03-.08-.05c0,0-.01,0-.02-.01l-.03-.02c-.07-.04-.14-.09-.21-.13-.08-.05-.15-.1-.23-.15-.04-.02-.08-.05-.11-.08,0,0-.02-.01-.03-.02-.01,0-.02-.01-.03-.02,0,0-.07-.05-.07-.05-.03-.02-.06-.04-.1-.07-.04-.03-.08-.05-.11-.08-.04-.03-.08-.06-.11-.08l-.02-.02s-.04-.03-.05-.04l-.03-.02s0,0-.01,0l-.03-.03s-.05-.04-.08-.06h0s0,0,0,0c-.04-.03-.07-.06-.11-.08-.03-.03-.07-.06-.1-.08,0,0,0,0,0,0-.02-.02-.04-.03-.06-.05h0s-.03-.03-.05-.05c-.04-.03-.08-.06-.11-.1-.04-.03-.08-.06-.11-.1-.04-.03-.07-.07-.11-.1-.02-.02-.03-.03-.05-.04h0s-.04-.04-.06-.06l-.05-.05s-.04-.03-.05-.05h0s-.06-.07-.09-.1l11.22-12.71-.03-.03-10.93,9.92-1.53,1.39s-.04-.05-.04-.05c-.02-.03-.04-.05-.06-.08-.04-.06-.08-.11-.12-.17h0s0-.02-.01-.03l-.02-.03s0,0,0,0c0,0,0,0,0,0-.02-.03-.04-.05-.05-.08l-.02-.03s-.04-.05-.06-.08c0,0,0-.01-.01-.02-.01-.02-.03-.04-.04-.06l-.05-.08s-.03-.05-.05-.08l-.04-.06s-.03-.04-.04-.06c-.02-.04-.05-.08-.07-.12l-.03-.04s0,0,0,0c0,0,0-.02,0-.02h0s0,0,0,0v-.02s-.02-.01-.02-.02h0s0-.01,0-.01c-.02-.04-.04-.08-.07-.12l-.03-.05s-.01-.02-.02-.03v-.02s-.03-.03-.03-.04c-.02-.03-.03-.06-.05-.08-.01-.02-.06-.11-.06-.11,0,0-.06-.12-.08-.15l-.05-.11s-.03-.06-.04-.09l-.02-.03s-.04-.08-.06-.12c0,0-.05-.1-.05-.12-.02-.03-.03-.07-.05-.1h0s0-.01,0-.02c-.02-.03-.03-.07-.04-.1,0,0,0-.02-.01-.02-.01-.03-.03-.06-.04-.1l-.02-.04s-.01-.03-.02-.05v-.02s-.03-.05-.04-.07c0-.01,0-.02-.01-.04,0-.01-.02-.05-.02-.05l-.04-.09s-.03-.07-.04-.11c-.01-.04-.03-.08-.04-.12v-.04s-.03-.05-.04-.07v-.03s-.03-.04-.03-.06c0,0,0-.01,0-.02h0s-.01-.04-.02-.06c0-.02-.01-.03-.02-.05-.01-.04-.02-.07-.04-.11,0-.03-.02-.06-.03-.09h0s1.79-1.22,1.79-1.22l9.6-6.48c.07-.05.14-.09.21-.14h0c.42-.32.73-.72.92-1.19.04-.1.12-.31.13-.59v-.04s-11.21,6.44-11.21,6.44l-1.94,1.11s-.01-.09-.01-.09c-.01-.1-.03-.2-.04-.29v-.06s-.01-.04-.01-.05v-.03s0-.01,0-.02c0,0,0,0,0-.01h0s0-.04,0-.05v-.02s0,0,0,0h0s0-.03,0-.04v-.08s0-.03-.01-.04v-.1s-.01-.08-.02-.12h0c0-.07,0-.13,0-.18,0-.01,0-.02,0-.04v-.02s0-.02,0-.02h0s0-.07,0-.07v-.09s0,0,0-.01c0,0,0-.01,0-.02,0,0,0-.01,0-.02v-.03s0-.01,0-.02c0,0,0-.02,0-.02,0-.07,0-.13,0-.17,0-.8.03-1.61.12-2.39l12.39-4.93-.03-.02c-.13-.09-.24-.13-.29-.16-.19-.08-.59-.22-1.1-.22-.24,0-.47.03-.7.09h-.01c-.07.02-.14.04-.21.07L.49,20.13c.3-1.3.74-2.58,1.31-3.82l2.52-.4,7.4-1.17c.18-.02.37-.03.55-.03.15,0,.3,0,.45.02h0c.09,0,.18.02.26.03.42.07.82.19,1.2.37.16.08.45.22.77.47.19.15.37.32.53.51.14.16.45.54.65,1.08.08.21.13.43.16.65.02.14.03.28.03.42,0,.71-.27,1.27-.49,1.62l.03.02c.15-.18.29-.35.43-.54.49-.66.66-1.05.77-1.41.07-.24.11-.47.11-.68,0-.12,0-.2,0-.23-.01-.13-.04-.26-.08-.38-.09-.3-.23-.51-.32-.64-.07-.11-.16-.22-.26-.32-.14-.15-.32-.3-.52-.44-.12-.08-.25-.16-.39-.24.36.02.73.04,1.08.06.43.02.88.03,1.37.04.39,0,.8.01,1.25.01.16,0,.32,0,.49,0,.21,0,.4,0,.6,0,1.2-.02,2.43-.07,3.66-.15.02,0,.04,0,.06,0,.2,0,.37.06.49.18.17.16.24.41.19.71v.03s.02,0,.02,0c.25-.02.48-.04.68-.04.02,0,.04,0,.07,0,.28,0,.65.03.94.27.36.3.47.78.5,1.14.01.14,0,.24,0,.28,0,.23-.04.45-.11.67-.1-.16-.29-.4-.63-.55-.15-.07-.33-.1-.54-.1-.26,0-.49.05-.55.07-3.47.89-6.49,2.6-8.96,5.07-.74.74-1.84,1.99-2.91,3.78-1.57,2.62-2.49,5.45-2.73,8.39v.02s.02,0,.02,0c.8.14,1.43.16,1.73.16h.24c.94,0,2.86-.1,5.14-.79,2.79-.85,5.23-2.3,7.24-4.31,1.22-1.22,5.18-5.71,5.1-12.51,0-.01,0-.04,0-.04,0-.13,0-.26,0-.39-.02-.5-.1-1.28-.33-2.2-.03-.14-.07-.27-.11-.41-.05-.17-.11-.35-.17-.51.26-.74.81-1.34,1.52-1.66.27.6.49,1.23.67,1.87.06.24.12.48.18.72.21.99.27,1.82.28,2.34,0,.12,0,.2,0,.25.04,3.39-.8,6.64-2.48,9.67-.89,1.6-2.03,3.13-3.22,4.32-2.31,2.31-5.1,3.95-8.31,4.88-2.43.71-4.48.81-5.48.81-.07,0-.14,0-.19,0h-.02s0,0,0,0h-.01Z"/>
        <path class="cls-1" d="M27.2,14.17c-.13-1.09-.63-2.12-1.42-2.9-.78-.78-1.81-1.28-2.9-1.42.94-.11,1.83-.49,2.57-1.11.11-.09.23-.2.34-.31.39-.39.71-.84.96-1.34.24-.49.4-1.02.46-1.56.06.52.21,1.02.43,1.5.24.52.58.99.99,1.4.78.78,1.81,1.28,2.9,1.42-.54.07-1.07.22-1.56.46-.63.31-1.2.75-1.65,1.29-.61.74-.99,1.62-1.11,2.57h0Z"/>
      </g>
    </g>
  </g>
</svg>